<?xml version="1.0" standalone="no"?>
<!DOCTYPE svg PUBLIC "-//W3C//DTD SVG 1.1//EN" "http://www.w3.org/Graphics/SVG/1.1/DTD/svg11.dtd" >
<svg xmlns="http://www.w3.org/2000/svg" xmlns:xlink="http://www.w3.org/1999/xlink" version="1.1">
<metadata>
Created by FontForge 20170731 at Tue Sep 24 01:33:18 2019
 By Aleksey,,,
Copyright (c) 2018 by Fahd Al Fraikh. All Rights Reserved.
</metadata>
<defs>
<font id="FFShamelFamily-UniqueBook" horiz-adv-x="0" >
  <font-face 
    font-family="FF Shamel Family Unique Book"
    font-weight="400"
    font-stretch="normal"
    units-per-em="1000"
    panose-1="0 0 5 0 0 0 0 0 0 0"
    ascent="800"
    descent="-200"
    bbox="-316 -468 1510 971"
    underline-thickness="50"
    underline-position="-150"
    unicode-range="U+0020-FEFC"
  />
<missing-glyph horiz-adv-x="500" 
d="M500 800v-1000h-500v1000h500zM429 750h-358l179 -390zM50 676v-752l172 376zM450 -76v752l-172 -376zM429 -150l-179 390l-179 -390h358z" />
    <glyph glyph-name="uniFEF5" unicode="&#xfedf;&#xfe82;" horiz-adv-x="720" arabic-form="isolated" 
d="M587 724q12 13 37 13q13 0 28 -3v-734h-584v74h152v490q0 27 12 40t38 13q13 0 30 -3v-540h275v610q0 27 12 40zM100 696q-16 0 -33 4v32q0 44 22 70.5t59 26.5q23 0 40.5 -8.5t30 -17.5t15.5 -12q20 -14 33 -20t30 -6q13 0 18.5 7.5t5.5 26.5v33q17 4 31 4q18 0 25.5 -8
t7.5 -26v-3q0 -46 -23.5 -72.5t-64.5 -26.5q-29 0 -48.5 9.5t-50.5 29.5l-17 11q-8 6 -15.5 10.5t-13.5 4.5q-20 0 -20 -33v-16q0 -20 -32 -20z" />
    <glyph glyph-name="uniFEF6" unicode="&#xfee0;&#xfe82;" horiz-adv-x="813" arabic-form="final" 
d="M692 115q40 -41 121 -41v-74q-143 0 -193 104q-29 -51 -81.5 -77.5t-125.5 -26.5h-345v74h152v490q0 27 12 40t38 13q13 0 30 -3v-540h113q162 0 162 165v445q0 27 12 40t37 13q13 0 28 -3v-495q0 -83 40 -124zM100 696q-16 0 -33 4v32q0 44 22 70.5t59 26.5
q23 0 40.5 -8.5t30 -17.5t15.5 -12q20 -14 33 -20t30 -6q13 0 18.5 7.5t5.5 26.5v33q17 4 31 4q18 0 25.5 -8t7.5 -26v-3q0 -46 -23.5 -72.5t-64.5 -26.5q-29 0 -48.5 9.5t-50.5 29.5l-17 11q-8 6 -15.5 10.5t-13.5 4.5q-20 0 -20 -33v-16q0 -20 -32 -20z" />
    <glyph glyph-name="uniFEF7" unicode="&#xfedf;&#xfe84;" horiz-adv-x="720" arabic-form="isolated" 
d="M587 724q12 13 37 13q13 0 28 -3v-734h-584v74h152v490q0 27 12 40t38 13q13 0 30 -3v-540h275v610q0 27 12 40zM356 697h-217v59h28q-24 23 -24 62q0 44 33 70.5t81 26.5q28 0 51 -8q21 -7 21 -26q0 -18 -20 -40q-26 13 -50 13q-23 0 -37 -12t-14 -34q0 -23 17 -37.5
t42 -14.5h89v-59z" />
    <glyph glyph-name="uniFEF8" unicode="&#xfee0;&#xfe84;" horiz-adv-x="813" arabic-form="final" 
d="M692 115q40 -41 121 -41v-74q-143 0 -193 104q-29 -51 -81.5 -77.5t-125.5 -26.5h-345v74h152v490q0 27 12 40t38 13q13 0 30 -3v-540h113q162 0 162 165v445q0 27 12 40t37 13q13 0 28 -3v-495q0 -83 40 -124zM356 697h-217v59h28q-24 23 -24 62q0 44 33 70.5t81 26.5
q28 0 51 -8q21 -7 21 -26q0 -18 -20 -40q-26 13 -50 13q-23 0 -37 -12t-14 -34q0 -23 17 -37.5t42 -14.5h89v-59z" />
    <glyph glyph-name="uniFEF9" unicode="&#xfedf;&#xfe88;" horiz-adv-x="720" arabic-form="isolated" 
d="M587 724q12 13 37 13q13 0 28 -3v-734h-584v74h152v490q0 27 12 40t38 13q13 0 30 -3v-540h275v610q0 27 12 40zM356 -308h-217v59h28q-24 23 -24 62q0 44 33 70.5t81 26.5q28 0 51 -8q21 -7 21 -26q0 -18 -20 -40q-26 13 -50 13q-23 0 -37 -12t-14 -34q0 -23 17 -37.5
t42 -14.5h89v-59z" />
    <glyph glyph-name="uniFEFA" unicode="&#xfee0;&#xfe88;" horiz-adv-x="813" arabic-form="final" 
d="M692 115q40 -41 121 -41v-74q-143 0 -193 104q-29 -51 -81.5 -77.5t-125.5 -26.5h-345v74h152v490q0 27 12 40t38 13q13 0 30 -3v-540h113q162 0 162 165v445q0 27 12 40t37 13q13 0 28 -3v-495q0 -83 40 -124zM356 -308h-217v59h28q-24 23 -24 62q0 44 33 70.5t81 26.5
q28 0 51 -8q21 -7 21 -26q0 -18 -20 -40q-26 13 -50 13q-23 0 -37 -12t-14 -34q0 -23 17 -37.5t42 -14.5h89v-59z" />
    <glyph glyph-name="uniFEFB" unicode="&#xfedf;&#xfe8e;" horiz-adv-x="707" arabic-form="isolated" 
d="M587 724q12 13 37 13q13 0 28 -3v-734h-584v74h152v490q0 27 12 40t38 13q13 0 30 -3v-540h275v610q0 27 12 40z" />
    <glyph glyph-name="uniFEFC" unicode="&#xfee0;&#xfe8e;" horiz-adv-x="813" arabic-form="final" 
d="M692 115q40 -41 121 -41v-74q-143 0 -193 104q-29 -51 -81.5 -77.5t-125.5 -26.5h-345v74h152v490q0 27 12 40t38 13q13 0 30 -3v-540h113q162 0 162 165v445q0 27 12 40t37 13q13 0 28 -3v-495q0 -83 40 -124z" />
    <glyph glyph-name="uni066E.init" unicode="&#x66e;" horiz-adv-x="307" 
d="M162 410q0 27 12 40t37 13q13 0 28 -3v-460h-239q-19 0 -31 11t-12 28q0 16 11.5 25.5t31.5 9.5h162v336z" />
    <glyph glyph-name="uni066E.medi" unicode="&#x66e;" horiz-adv-x="400" 
d="M279 115q40 -41 121 -41v-74q-143 0 -193 104q-29 -51 -81.5 -77.5t-125.5 -26.5q-19 0 -31 11t-12 28q0 16 11.5 25.5t31.5 9.5q162 0 162 165v171q0 27 12 40t37 13q13 0 28 -3v-221q0 -83 40 -124z" />
    <glyph glyph-name="uni066E.fina" unicode="&#x66e;" horiz-adv-x="1047" 
d="M926 115q40 -41 121 -41v-74q-144 0 -192 104q-29 -51 -82 -77.5t-126 -26.5h-266q-96 0 -165 33t-105 94t-36 143q0 46 12 97q9 45 62 45q16 0 26 -2q-22 -70 -22 -132q0 -97 58.5 -150.5t169.5 -53.5h266q162 0 162 165v171q0 52 55 52q6 0 22 -2v-221q0 -83 40 -124z
" />
    <glyph glyph-name="uni06A1.init" unicode="&#x6a1;" horiz-adv-x="657" 
d="M465.5 490.5q55.5 -37.5 83.5 -98t28 -129.5q0 -68 -28 -128.5t-84 -97.5t-134 -37h-331q-20 0 -31.5 9.5t-11.5 26.5q0 19 11.5 28.5t31.5 9.5h154q-33 36 -50 85t-17 101q0 69 28.5 130.5t84 99.5t133.5 38q77 0 132.5 -37.5zM424.5 100q37.5 26 56.5 68t19 90
q0 50 -19.5 94t-57.5 71.5t-92 27.5q-53 0 -91 -27t-57.5 -70.5t-19.5 -92.5t19.5 -91.5t58 -69t92.5 -26.5t91.5 26z" />
    <glyph glyph-name="uni06A1.medi" unicode="&#x6a1;" horiz-adv-x="681" 
d="M681 74v-74h-681q-20 0 -31.5 9.5t-11.5 26.5q0 19 11.5 28.5t31.5 9.5h154q-33 36 -50 85t-17 101q0 69 28.5 130.5t84 99.5t133.5 38q77 0 132.5 -37.5t83.5 -98t28 -129.5q0 -53 -17.5 -102.5t-50.5 -86.5h172zM240 424q-38 -27 -57.5 -70.5t-19.5 -92.5t19.5 -91.5
t58 -69t92.5 -26.5t91.5 26t56.5 68t19 90q0 50 -19.5 94t-57.5 71.5t-92 27.5q-53 0 -91 -27z" />
    <glyph glyph-name="uni06A1.fina" unicode="&#x6a1;" horiz-adv-x="1177" 
d="M1177 74v-74h-797q-85 0 -154.5 28.5t-111 87.5t-41.5 148q0 50 13 103q6 24 19 35t38 11q14 0 32 -3q-23 -72 -23 -132q0 -103 64 -153.5t164 -50.5h250q-33 36 -50 85t-17 101q0 69 28.5 130.5t84 99.5t133.5 38q77 0 132.5 -37.5t83.5 -98t28 -129.5
q0 -53 -17.5 -102.5t-50.5 -86.5h192zM716 424q-38 -27 -57.5 -70.5t-19.5 -92.5t19.5 -91.5t58 -69t92.5 -26.5t91.5 26t56.5 68t19 90q0 50 -19.5 94t-57.5 71.5t-92 27.5q-53 0 -91 -27z" />
    <glyph glyph-name="uniFB57" unicode="&#x67e;" horiz-adv-x="1047" arabic-form="final" 
d="M430.5 -104q13.5 -14 13.5 -33t-13.5 -32.5t-32.5 -13.5t-33 13.5t-14 32.5t14 33t33 14t32.5 -14zM590.5 -104q13.5 -14 13.5 -33t-13.5 -32.5t-32.5 -13.5t-33 13.5t-14 32.5t14 33t33 14t32.5 -14zM510.5 -239q13.5 -14 13.5 -33t-13.5 -32.5t-32.5 -13.5t-33 13.5
t-14 32.5t14 33t33 14t32.5 -14zM926 115q40 -41 121 -41v-74q-144 0 -192 104q-29 -51 -82 -77.5t-126 -26.5h-266q-96 0 -165 33t-105 94t-36 143q0 46 12 97q9 45 62 45q16 0 26 -2q-22 -70 -22 -132q0 -97 58.5 -150.5t169.5 -53.5h266q162 0 162 165v171q0 52 55 52
q6 0 22 -2v-221q0 -83 40 -124z" />
    <glyph glyph-name="uniFB58" unicode="&#x67e;" horiz-adv-x="356" arabic-form="initial" 
d="M162 410q0 27 12 40t37 13q13 0 28 -3v-460h-239q-19 0 -31 11t-12 28q0 16 11.5 25.5t31.5 9.5h162v336zM152.5 -104q13.5 -14 13.5 -33t-13.5 -32.5t-32.5 -13.5t-33 13.5t-14 32.5t14 33t33 14t32.5 -14zM312.5 -104q13.5 -14 13.5 -33t-13.5 -32.5t-32.5 -13.5
t-33 13.5t-14 32.5t14 33t33 14t32.5 -14zM232.5 -239q13.5 -14 13.5 -33t-13.5 -32.5t-32.5 -13.5t-33 13.5t-14 32.5t14 33t33 14t32.5 -14z" />
    <glyph glyph-name="uniFB59" unicode="&#x67e;" horiz-adv-x="400" arabic-form="medial" 
d="M279 115q40 -41 121 -41v-74q-143 0 -193 104q-29 -51 -81.5 -77.5t-125.5 -26.5q-19 0 -31 11t-12 28q0 16 11.5 25.5t31.5 9.5q162 0 162 165v171q0 27 12 40t37 13q13 0 28 -3v-221q0 -83 40 -124zM152.5 -104q13.5 -14 13.5 -33t-13.5 -32.5t-32.5 -13.5t-33 13.5
t-14 32.5t14 33t33 14t32.5 -14zM312.5 -104q13.5 -14 13.5 -33t-13.5 -32.5t-32.5 -13.5t-33 13.5t-14 32.5t14 33t33 14t32.5 -14zM232.5 -239q13.5 -14 13.5 -33t-13.5 -32.5t-32.5 -13.5t-33 13.5t-14 32.5t14 33t33 14t32.5 -14z" />
    <glyph glyph-name="uniFB6B" unicode="&#x6a4;" horiz-adv-x="1177" arabic-form="final" 
d="M1177 74v-74h-797q-85 0 -154.5 28.5t-111 87.5t-41.5 148q0 50 13 103q6 24 19 35t38 11q14 0 32 -3q-23 -72 -23 -132q0 -103 64 -153.5t164 -50.5h250q-33 36 -50 85t-17 101q0 69 28.5 130.5t84 99.5t133.5 38q77 0 132.5 -37.5t83.5 -98t28 -129.5
q0 -53 -17.5 -102.5t-50.5 -86.5h192zM716 424q-38 -27 -57.5 -70.5t-19.5 -92.5t19.5 -91.5t58 -69t92.5 -26.5t91.5 26t56.5 68t19 90q0 50 -19.5 94t-57.5 71.5t-92 27.5q-53 0 -91 -27zM773 762q-14 14 -14 33t14 32.5t33 13.5t32.5 -13.5t13.5 -32.5t-13.5 -33
t-32.5 -14t-33 14zM693 627q-14 14 -14 33t14 32.5t33 13.5t32.5 -13.5t13.5 -32.5t-13.5 -33t-32.5 -14t-33 14zM853 627q-14 14 -14 33t14 32.5t33 13.5t32.5 -13.5t13.5 -32.5t-13.5 -33t-32.5 -14t-33 14z" />
    <glyph glyph-name="uniFB6C" unicode="&#x6a4;" horiz-adv-x="645" arabic-form="initial" 
d="M465.5 490.5q55.5 -37.5 83.5 -98t28 -129.5q0 -68 -28 -128.5t-84 -97.5t-134 -37h-331q-20 0 -31.5 9.5t-11.5 26.5q0 19 11.5 28.5t31.5 9.5h154q-33 36 -50 85t-17 101q0 69 28.5 130.5t84 99.5t133.5 38q77 0 132.5 -37.5zM424.5 100q37.5 26 56.5 68t19 90
q0 50 -19.5 94t-57.5 71.5t-92 27.5q-53 0 -91 -27t-57.5 -70.5t-19.5 -92.5t19.5 -91.5t58 -69t92.5 -26.5t91.5 26zM300 762q-14 14 -14 33t14 32.5t33 13.5t32.5 -13.5t13.5 -32.5t-13.5 -33t-32.5 -14t-33 14zM220 627q-14 14 -14 33t14 32.5t33 13.5t32.5 -13.5
t13.5 -32.5t-13.5 -33t-32.5 -14t-33 14zM380 627q-14 14 -14 33t14 32.5t33 13.5t32.5 -13.5t13.5 -32.5t-13.5 -33t-32.5 -14t-33 14z" />
    <glyph glyph-name="uniFB6D" unicode="&#x6a4;" horiz-adv-x="681" arabic-form="medial" 
d="M681 74v-74h-681q-20 0 -31.5 9.5t-11.5 26.5q0 19 11.5 28.5t31.5 9.5h154q-33 36 -50 85t-17 101q0 69 28.5 130.5t84 99.5t133.5 38q77 0 132.5 -37.5t83.5 -98t28 -129.5q0 -53 -17.5 -102.5t-50.5 -86.5h172zM240 424q-38 -27 -57.5 -70.5t-19.5 -92.5t19.5 -91.5
t58 -69t92.5 -26.5t91.5 26t56.5 68t19 90q0 50 -19.5 94t-57.5 71.5t-92 27.5q-53 0 -91 -27zM301 762q-14 14 -14 33t14 32.5t33 13.5t32.5 -13.5t13.5 -32.5t-13.5 -33t-32.5 -14t-33 14zM221 627q-14 14 -14 33t14 32.5t33 13.5t32.5 -13.5t13.5 -32.5t-13.5 -33
t-32.5 -14t-33 14zM381 627q-14 14 -14 33t14 32.5t33 13.5t32.5 -13.5t13.5 -32.5t-13.5 -33t-32.5 -14t-33 14z" />
    <glyph glyph-name="uniFB7B" unicode="&#x686;" horiz-adv-x="769" arabic-form="final" 
d="M769 0h-415q-99 0 -144 -32.5t-45 -102.5t45.5 -103t143.5 -33h104v-73h-104q-130 0 -198 53.5t-68 155.5t68 155.5t198 53.5h226q-8 24 -19 86q-1 11 -5 31q-15 85 -40 135t-67 78q-36 24 -82.5 35.5t-94.5 11.5q-54 0 -98 -13q-9 26 -9 42q0 37 44 42q35 5 68 5
q59 0 116 -15t103 -46q53 -36 86 -100t50 -163q11 -59 18.5 -84t22 -35t43.5 -10h53v-74zM396 -54q11 -11 11 -27q0 -15 -11 -26t-26 -11q-16 0 -26.5 11t-10.5 26q0 16 10.5 27t26.5 11q15 0 26 -11zM524 -54q11 -11 11 -27q0 -15 -11 -26t-26 -11q-16 0 -26.5 11t-10.5 26
q0 16 10.5 27t26.5 11q15 0 26 -11zM460 -162q11 -11 11 -27q0 -15 -11 -26t-26 -11q-16 0 -26.5 11t-10.5 26q0 16 10.5 27t26.5 11q15 0 26 -11z" />
    <glyph glyph-name="uniFB7C" unicode="&#x686;" horiz-adv-x="674" arabic-form="initial" 
d="M540.5 119q7.5 -25 22 -35t43.5 -10v-74h-606q-16 0 -27.5 11.5t-11.5 27.5q0 15 11 24.5t28 10.5h470q-8 24 -19 86q-1 11 -5 31q-15 85 -40 135t-67 78q-36 24 -82.5 35.5t-94.5 11.5q-54 0 -98 -13q-9 26 -9 42q0 37 44 42q35 5 68 5q59 0 116 -15t103 -46
q53 -36 86 -100t50 -163q11 -59 18.5 -84zM244.5 -103q13.5 -14 13.5 -33t-13.5 -32.5t-32.5 -13.5t-33 13.5t-14 32.5t14 33t33 14t32.5 -14zM404.5 -103q13.5 -14 13.5 -33t-13.5 -32.5t-32.5 -13.5t-33 13.5t-14 32.5t14 33t33 14t32.5 -14zM324.5 -238
q13.5 -14 13.5 -33t-13.5 -32.5t-32.5 -13.5t-33 13.5t-14 32.5t14 33t33 14t32.5 -14z" />
    <glyph glyph-name="uniFB7D" unicode="&#x686;" horiz-adv-x="654" arabic-form="medial" 
d="M654 74v-74h-654q-16 0 -27.5 11.5t-11.5 27.5q0 15 11 24.5t28 10.5h470q-8 24 -19 86q-1 11 -5 31q-15 85 -40 135t-67 78q-36 24 -82.5 35.5t-94.5 11.5q-54 0 -98 -13q-9 26 -9 42q0 37 44 42q35 5 68 5q59 0 116 -15t103 -46q53 -36 86 -100t50 -163
q11 -59 18.5 -84t22 -35t43.5 -10h48zM261.5 -103q13.5 -14 13.5 -33t-13.5 -32.5t-32.5 -13.5t-33 13.5t-14 32.5t14 33t33 14t32.5 -14zM421.5 -103q13.5 -14 13.5 -33t-13.5 -32.5t-32.5 -13.5t-33 13.5t-14 32.5t14 33t33 14t32.5 -14zM341.5 -238q13.5 -14 13.5 -33
t-13.5 -32.5t-32.5 -13.5t-33 13.5t-14 32.5t14 33t33 14t32.5 -14z" />
    <glyph glyph-name="uniFE82" unicode="&#x622;" horiz-adv-x="306" arabic-form="final" 
d="M306 74v-74h-238v684q0 27 12 40t37 13q13 0 28 -3v-660h161zM19 831q-16 0 -33 4v32q0 44 22 70.5t59 26.5q23 0 40.5 -8.5t30 -17.5t15.5 -12q20 -14 33 -20t30 -6q13 0 18.5 7.5t5.5 26.5v33q17 4 31 4q18 0 25.5 -8t7.5 -26v-3q0 -46 -23.5 -72.5t-64.5 -26.5
q-29 0 -48.5 9.5t-50.5 29.5l-17 11q-8 6 -15.5 10.5t-13.5 4.5q-20 0 -20 -33v-16q0 -20 -32 -20z" />
    <glyph glyph-name="uniFE84" unicode="&#x623;" horiz-adv-x="329" arabic-form="final" 
d="M240 751h-217v59h28q-24 23 -24 62q0 44 33 70.5t81 26.5q28 0 51 -8q21 -7 21 -26q0 -18 -20 -40q-26 13 -50 13q-23 0 -37 -12t-14 -34q0 -23 17 -37.5t42 -14.5h89v-59zM329 74v-74h-238v614q0 27 12 40t37 13q13 0 28 -3v-590h161z" />
    <glyph glyph-name="uniFE86" unicode="&#x624;" horiz-adv-x="651" arabic-form="final" 
d="M651 0h-104q-15 -123 -78.5 -186.5t-174.5 -63.5q-53 0 -107 11v72q56 -8 96 -8q87 0 132 41t57 134h-163q-76 0 -130.5 36.5t-82.5 96t-28 126.5q0 68 29 130t84 100t130 38q71 0 125.5 -35.5t84.5 -98.5t30 -144v-175h100v-74zM476 74v4v173q0 59 -21 104t-59 70
t-87 25q-51 0 -89 -26.5t-57.5 -70t-19.5 -91.5t20 -91.5t58 -70t90 -26.5h165zM421 615h-217v59h28q-24 23 -24 62q0 44 33 70.5t81 26.5q28 0 51 -8q21 -7 21 -26q0 -18 -20 -40q-26 13 -50 13q-23 0 -37 -12t-14 -34q0 -23 17 -37.5t42 -14.5h89v-59z" />
    <glyph glyph-name="uniFE88" unicode="&#x625;" horiz-adv-x="306" arabic-form="final" 
d="M306 74v-74h-238v684q0 27 12 40t37 13q13 0 28 -3v-660h161zM236 -317h-217v59h28q-24 23 -24 62q0 44 33 70.5t81 26.5q28 0 51 -8q21 -7 21 -26q0 -18 -20 -40q-26 13 -50 13q-23 0 -37 -12t-14 -34q0 -23 17 -37.5t42 -14.5h89v-59z" />
    <glyph glyph-name="uniFE8A" unicode="&#x626;" horiz-adv-x="840" arabic-form="final" 
d="M840 0q-14 0 -42 2q17 -36 17 -85q0 -112 -78.5 -162t-251.5 -50h-59q-161 0 -257 74.5t-96 233.5q0 59 15 131q5 25 17.5 36t37.5 11q14 0 32 -3q-25 -96 -25 -168q0 -242 276 -242h59q98 0 152 13t77.5 43t23.5 83q0 47 -19.5 70t-73.5 38l-58 14l-78 19q0 63 43 63
q10 0 22 -3q95 -23 152.5 -33.5t113.5 -10.5v-74zM286 325h-217v59h28q-24 23 -24 62q0 44 33 70.5t81 26.5q28 0 51 -8q21 -7 21 -26q0 -18 -20 -40q-26 13 -50 13q-23 0 -37 -12t-14 -34q0 -23 17 -37.5t42 -14.5h89v-59z" />
    <glyph glyph-name="uniFE8B" unicode="&#x626;" horiz-adv-x="331" arabic-form="initial" 
d="M162 410q0 27 12 40t37 13q13 0 28 -3v-460h-239q-19 0 -31 11t-12 28q0 16 11.5 25.5t31.5 9.5h162v336zM301 547h-217v59h28q-24 23 -24 62q0 44 33 70.5t81 26.5q28 0 51 -8q21 -7 21 -26q0 -18 -20 -40q-26 13 -50 13q-23 0 -37 -12t-14 -34q0 -23 17 -37.5t42 -14.5
h89v-59z" />
    <glyph glyph-name="uniFE8C" unicode="&#x626;" horiz-adv-x="400" arabic-form="medial" 
d="M279 115q40 -41 121 -41v-74q-143 0 -193 104q-29 -51 -81.5 -77.5t-125.5 -26.5q-19 0 -31 11t-12 28q0 16 11.5 25.5t31.5 9.5q162 0 162 165v171q0 27 12 40t37 13q13 0 28 -3v-221q0 -83 40 -124zM301 547h-217v59h28q-24 23 -24 62q0 44 33 70.5t81 26.5q28 0 51 -8
q21 -7 21 -26q0 -18 -20 -40q-26 13 -50 13q-23 0 -37 -12t-14 -34q0 -23 17 -37.5t42 -14.5h89v-59z" />
    <glyph glyph-name="uniFE8E" unicode="&#x627;" horiz-adv-x="306" arabic-form="final" 
d="M306 74v-74h-238v684q0 27 12 40t37 13q13 0 28 -3v-660h161z" />
    <glyph glyph-name="uniFE90" unicode="&#x628;" horiz-adv-x="1047" arabic-form="final" 
d="M445 -169q-14 14 -14 33t14 32.5t33 13.5t32.5 -13.5t13.5 -32.5t-13.5 -33t-32.5 -14t-33 14zM926 115q40 -41 121 -41v-74q-144 0 -192 104q-29 -51 -82 -77.5t-126 -26.5h-266q-96 0 -165 33t-105 94t-36 143q0 46 12 97q9 45 62 45q16 0 26 -2q-22 -70 -22 -132
q0 -97 58.5 -150.5t169.5 -53.5h266q162 0 162 165v171q0 52 55 52q6 0 22 -2v-221q0 -83 40 -124z" />
    <glyph glyph-name="uniFE91" unicode="&#x628;" horiz-adv-x="307" arabic-form="initial" 
d="M162 410q0 27 12 40t37 13q13 0 28 -3v-460h-239q-19 0 -31 11t-12 28q0 16 11.5 25.5t31.5 9.5h162v336zM110 -169q-14 14 -14 33t14 32.5t33 13.5t32.5 -13.5t13.5 -32.5t-13.5 -33t-32.5 -14t-33 14z" />
    <glyph glyph-name="uniFE92" unicode="&#x628;" horiz-adv-x="400" arabic-form="medial" 
d="M279 115q40 -41 121 -41v-74q-143 0 -193 104q-29 -51 -81.5 -77.5t-125.5 -26.5q-19 0 -31 11t-12 28q0 16 11.5 25.5t31.5 9.5q162 0 162 165v171q0 27 12 40t37 13q13 0 28 -3v-221q0 -83 40 -124zM167 -168q-14 14 -14 33t14 32.5t33 13.5t32.5 -13.5t13.5 -32.5
t-13.5 -33t-32.5 -14t-33 14z" />
    <glyph glyph-name="uniFE94" unicode="&#x629;" horiz-adv-x="685" arabic-form="final" 
d="M210 627q-14 14 -14 33t14 32.5t33 13.5t32.5 -13.5t13.5 -32.5t-13.5 -33t-32.5 -14t-33 14zM370 627q-14 14 -14 33t14 32.5t33 13.5t32.5 -13.5t13.5 -32.5t-13.5 -33t-32.5 -14t-33 14zM564 115q40 -41 121 -41v-74q-87 0 -145 38.5t-80 109.5q-52 -128 -207 -128
q-61 0 -110 28.5t-77 81t-28 121.5q0 87 41 149t112.5 94t161.5 32q43 0 94 -8v6q0 27 12 40t37 13q13 0 28 -3v-335q0 -83 40 -124zM363.5 118.5q39.5 26.5 61.5 73.5t22 108v147q-46 10 -92 10q-70 0 -124.5 -25t-85 -72t-30.5 -111q0 -74 42 -115.5t116 -41.5
q51 0 90.5 26.5z" />
    <glyph glyph-name="uniFE96" unicode="&#x62a;" horiz-adv-x="1047" arabic-form="final" 
d="M365 544q-14 14 -14 33t14 32.5t33 13.5t32.5 -13.5t13.5 -32.5t-13.5 -33t-32.5 -14t-33 14zM525 544q-14 14 -14 33t14 32.5t33 13.5t32.5 -13.5t13.5 -32.5t-13.5 -33t-32.5 -14t-33 14zM926 115q40 -41 121 -41v-74q-144 0 -192 104q-29 -51 -82 -77.5t-126 -26.5
h-266q-96 0 -165 33t-105 94t-36 143q0 46 12 97q9 45 62 45q16 0 26 -2q-22 -70 -22 -132q0 -97 58.5 -150.5t169.5 -53.5h266q162 0 162 165v171q0 52 55 52q6 0 22 -2v-221q0 -83 40 -124z" />
    <glyph glyph-name="uniFE97" unicode="&#x62a;" horiz-adv-x="349" arabic-form="initial" 
d="M162 410q0 27 12 40t37 13q13 0 28 -3v-460h-239q-19 0 -31 11t-12 28q0 16 11.5 25.5t31.5 9.5h162v336zM80 579q-14 14 -14 33t14 32.5t33 13.5t32.5 -13.5t13.5 -32.5t-13.5 -33t-32.5 -14t-33 14zM240 579q-14 14 -14 33t14 32.5t33 13.5t32.5 -13.5t13.5 -32.5
t-13.5 -33t-32.5 -14t-33 14z" />
    <glyph glyph-name="uniFE98" unicode="&#x62a;" horiz-adv-x="400" arabic-form="medial" 
d="M279 115q40 -41 121 -41v-74q-143 0 -193 104q-29 -51 -81.5 -77.5t-125.5 -26.5q-19 0 -31 11t-12 28q0 16 11.5 25.5t31.5 9.5q162 0 162 165v171q0 27 12 40t37 13q13 0 28 -3v-221q0 -83 40 -124zM87 579q-14 14 -14 33t14 32.5t33 13.5t32.5 -13.5t13.5 -32.5
t-13.5 -33t-32.5 -14t-33 14zM247 579q-14 14 -14 33t14 32.5t33 13.5t32.5 -13.5t13.5 -32.5t-13.5 -33t-32.5 -14t-33 14z" />
    <glyph glyph-name="uniFE9A" unicode="&#x62b;" horiz-adv-x="1047" arabic-form="final" 
d="M451 679q-14 14 -14 33t14 32.5t33 13.5t32.5 -13.5t13.5 -32.5t-13.5 -33t-32.5 -14t-33 14zM371 544q-14 14 -14 33t14 32.5t33 13.5t32.5 -13.5t13.5 -32.5t-13.5 -33t-32.5 -14t-33 14zM531 544q-14 14 -14 33t14 32.5t33 13.5t32.5 -13.5t13.5 -32.5t-13.5 -33
t-32.5 -14t-33 14zM926 115q40 -41 121 -41v-74q-144 0 -192 104q-29 -51 -82 -77.5t-126 -26.5h-266q-96 0 -165 33t-105 94t-36 143q0 46 12 97q9 45 62 45q16 0 26 -2q-22 -70 -22 -132q0 -97 58.5 -150.5t169.5 -53.5h266q162 0 162 165v171q0 52 55 52q6 0 22 -2v-221
q0 -83 40 -124z" />
    <glyph glyph-name="uniFE9B" unicode="&#x62b;" horiz-adv-x="357" arabic-form="initial" 
d="M162 410q0 27 12 40t37 13q13 0 28 -3v-460h-239q-19 0 -31 11t-12 28q0 16 11.5 25.5t31.5 9.5h162v336zM168 714q-14 14 -14 33t14 32.5t33 13.5t32.5 -13.5t13.5 -32.5t-13.5 -33t-32.5 -14t-33 14zM88 579q-14 14 -14 33t14 32.5t33 13.5t32.5 -13.5t13.5 -32.5
t-13.5 -33t-32.5 -14t-33 14zM248 579q-14 14 -14 33t14 32.5t33 13.5t32.5 -13.5t13.5 -32.5t-13.5 -33t-32.5 -14t-33 14z" />
    <glyph glyph-name="uniFE9C" unicode="&#x62b;" horiz-adv-x="400" arabic-form="medial" 
d="M279 115q40 -41 121 -41v-74q-143 0 -193 104q-29 -51 -81.5 -77.5t-125.5 -26.5q-19 0 -31 11t-12 28q0 16 11.5 25.5t31.5 9.5q162 0 162 165v171q0 27 12 40t37 13q13 0 28 -3v-221q0 -83 40 -124zM167 714q-14 14 -14 33t14 32.5t33 13.5t32.5 -13.5t13.5 -32.5
t-13.5 -33t-32.5 -14t-33 14zM87 579q-14 14 -14 33t14 32.5t33 13.5t32.5 -13.5t13.5 -32.5t-13.5 -33t-32.5 -14t-33 14zM247 579q-14 14 -14 33t14 32.5t33 13.5t32.5 -13.5t13.5 -32.5t-13.5 -33t-32.5 -14t-33 14z" />
    <glyph glyph-name="uniFE9E" unicode="&#x62c;" horiz-adv-x="769" arabic-form="final" 
d="M769 0h-415q-99 0 -144 -32.5t-45 -102.5t45.5 -103t143.5 -33h104v-73h-104q-130 0 -198 53.5t-68 155.5t68 155.5t198 53.5h226q-8 24 -19 86q-1 11 -5 31q-15 85 -40 135t-67 78q-36 24 -82.5 35.5t-94.5 11.5q-54 0 -98 -13q-9 26 -9 42q0 37 44 42q35 5 68 5
q59 0 116 -15t103 -46q53 -36 86 -100t50 -163q11 -59 18.5 -84t22 -35t43.5 -10h53v-74zM375 -162q-14 14 -14 33t14 32.5t33 13.5t32.5 -13.5t13.5 -32.5t-13.5 -33t-32.5 -14t-33 14z" />
    <glyph glyph-name="uniFE9F" unicode="&#x62c;" horiz-adv-x="674" arabic-form="initial" 
d="M540.5 119q7.5 -25 22 -35t43.5 -10v-74h-606q-16 0 -27.5 11.5t-11.5 27.5q0 15 11 24.5t28 10.5h470q-8 24 -19 86q-1 11 -5 31q-15 85 -40 135t-67 78q-36 24 -82.5 35.5t-94.5 11.5q-54 0 -98 -13q-9 26 -9 42q0 37 44 42q35 5 68 5q59 0 116 -15t103 -46
q53 -36 86 -100t50 -163q11 -59 18.5 -84zM264 -169q-14 14 -14 33t14 32.5t33 13.5t32.5 -13.5t13.5 -32.5t-13.5 -33t-32.5 -14t-33 14z" />
    <glyph glyph-name="uniFEA0" unicode="&#x62c;" horiz-adv-x="654" arabic-form="medial" 
d="M654 74v-74h-654q-16 0 -27.5 11.5t-11.5 27.5q0 15 11 24.5t28 10.5h470q-8 24 -19 86q-1 11 -5 31q-15 85 -40 135t-67 78q-36 24 -82.5 35.5t-94.5 11.5q-54 0 -98 -13q-9 26 -9 42q0 37 44 42q35 5 68 5q59 0 116 -15t103 -46q53 -36 86 -100t50 -163
q11 -59 18.5 -84t22 -35t43.5 -10h48zM275 -169q-14 14 -14 33t14 32.5t33 13.5t32.5 -13.5t13.5 -32.5t-13.5 -33t-32.5 -14t-33 14z" />
    <glyph glyph-name="uniFEA2" unicode="&#x62d;" horiz-adv-x="769" arabic-form="final" 
d="M769 0h-415q-99 0 -144 -32.5t-45 -102.5t45.5 -103t143.5 -33h104v-73h-104q-130 0 -198 53.5t-68 155.5t68 155.5t198 53.5h226q-8 24 -19 86q-1 11 -5 31q-15 85 -40 135t-67 78q-36 24 -82.5 35.5t-94.5 11.5q-54 0 -98 -13q-9 26 -9 42q0 37 44 42q35 5 68 5
q59 0 116 -15t103 -46q53 -36 86 -100t50 -163q11 -59 18.5 -84t22 -35t43.5 -10h53v-74z" />
    <glyph glyph-name="uniFEA3" unicode="&#x62d;" horiz-adv-x="674" arabic-form="initial" 
d="M540.5 119q7.5 -25 22 -35t43.5 -10v-74h-606q-16 0 -27.5 11.5t-11.5 27.5q0 15 11 24.5t28 10.5h470q-8 24 -19 86q-1 11 -5 31q-15 85 -40 135t-67 78q-36 24 -82.5 35.5t-94.5 11.5q-54 0 -98 -13q-9 26 -9 42q0 37 44 42q35 5 68 5q59 0 116 -15t103 -46
q53 -36 86 -100t50 -163q11 -59 18.5 -84z" />
    <glyph glyph-name="uniFEA4" unicode="&#x62d;" horiz-adv-x="654" arabic-form="medial" 
d="M654 74v-74h-654q-16 0 -27.5 11.5t-11.5 27.5q0 15 11 24.5t28 10.5h470q-8 24 -19 86q-1 11 -5 31q-15 85 -40 135t-67 78q-36 24 -82.5 35.5t-94.5 11.5q-54 0 -98 -13q-9 26 -9 42q0 37 44 42q35 5 68 5q59 0 116 -15t103 -46q53 -36 86 -100t50 -163
q11 -59 18.5 -84t22 -35t43.5 -10h48z" />
    <glyph glyph-name="uniFEA6" unicode="&#x62e;" horiz-adv-x="769" arabic-form="final" 
d="M769 0h-415q-99 0 -144 -32.5t-45 -102.5t45.5 -103t143.5 -33h104v-73h-104q-130 0 -198 53.5t-68 155.5t68 155.5t198 53.5h226q-8 24 -19 86q-1 11 -5 31q-15 85 -40 135t-67 78q-36 24 -82.5 35.5t-94.5 11.5q-54 0 -98 -13q-9 26 -9 42q0 37 44 42q35 5 68 5
q59 0 116 -15t103 -46q53 -36 86 -100t50 -163q11 -59 18.5 -84t22 -35t43.5 -10h53v-74zM368 627q-14 14 -14 33t14 32.5t33 13.5t32.5 -13.5t13.5 -32.5t-13.5 -33t-32.5 -14t-33 14z" />
    <glyph glyph-name="uniFEA7" unicode="&#x62e;" horiz-adv-x="674" arabic-form="initial" 
d="M540.5 119q7.5 -25 22 -35t43.5 -10v-74h-606q-16 0 -27.5 11.5t-11.5 27.5q0 15 11 24.5t28 10.5h470q-8 24 -19 86q-1 11 -5 31q-15 85 -40 135t-67 78q-36 24 -82.5 35.5t-94.5 11.5q-54 0 -98 -13q-9 26 -9 42q0 37 44 42q35 5 68 5q59 0 116 -15t103 -46
q53 -36 86 -100t50 -163q11 -59 18.5 -84zM247 627q-14 14 -14 33t14 32.5t33 13.5t32.5 -13.5t13.5 -32.5t-13.5 -33t-32.5 -14t-33 14z" />
    <glyph glyph-name="uniFEA8" unicode="&#x62e;" horiz-adv-x="654" arabic-form="medial" 
d="M654 74v-74h-654q-16 0 -27.5 11.5t-11.5 27.5q0 15 11 24.5t28 10.5h470q-8 24 -19 86q-1 11 -5 31q-15 85 -40 135t-67 78q-36 24 -82.5 35.5t-94.5 11.5q-54 0 -98 -13q-9 26 -9 42q0 37 44 42q35 5 68 5q59 0 116 -15t103 -46q53 -36 86 -100t50 -163
q11 -59 18.5 -84t22 -35t43.5 -10h48zM278 627q-14 14 -14 33t14 32.5t33 13.5t32.5 -13.5t13.5 -32.5t-13.5 -33t-32.5 -14t-33 14z" />
    <glyph glyph-name="uniFEAA" unicode="&#x62f;" horiz-adv-x="630" arabic-form="final" 
d="M630 74v-74h-562v74h375v141q0 114 -63 177t-175 63q-34 0 -71 -6q-8 21 -8 39q0 19 12 27.5t36 10.5q28 2 40 2q95 0 164.5 -38.5t105.5 -108.5t36 -163v-144h110z" />
    <glyph glyph-name="uniFEAC" unicode="&#x630;" horiz-adv-x="630" arabic-form="final" 
d="M262 627q-14 14 -14 33t14 32.5t33 13.5t32.5 -13.5t13.5 -32.5t-13.5 -33t-32.5 -14t-33 14zM630 74v-74h-562v74h375v141q0 114 -63 177t-175 63q-34 0 -71 -6q-8 21 -8 39q0 19 12 27.5t36 10.5q28 2 40 2q95 0 164.5 -38.5t105.5 -108.5t36 -163v-144h110z" />
    <glyph glyph-name="uniFEAE" unicode="&#x631;" horiz-adv-x="349" arabic-form="final" 
d="M349 0h-111v-39q0 -90 -36 -134.5t-110 -44.5q-41 0 -92 13l16 69q38 -8 63 -8q42 0 62 24.5t20 80.5v449q0 27 12 40t37 13q13 0 28 -3v-386h111v-74z" />
    <glyph glyph-name="uniFEB0" unicode="&#x632;" horiz-adv-x="349" arabic-form="final" 
d="M349 0h-111v-39q0 -90 -36 -134.5t-110 -44.5q-41 0 -92 13l16 69q38 -8 63 -8q42 0 62 24.5t20 80.5v449q0 27 12 40t37 13q13 0 28 -3v-386h111v-74zM167 577q-14 14 -14 33t14 32.5t33 13.5t32.5 -13.5t13.5 -32.5t-13.5 -33t-32.5 -14t-33 14z" />
    <glyph glyph-name="uniFEB2" unicode="&#x633;" horiz-adv-x="1510" arabic-form="final" 
d="M1389 115q40 -41 121 -41v-74q-139 0 -191 100q-25 -49 -68.5 -74.5t-100.5 -25.5q-56 0 -97.5 25t-64.5 73q-25 -48 -68 -73t-100 -25q-84 0 -132 53q-8 -151 -89.5 -225.5t-220.5 -74.5q-132 0 -221 69.5t-89 226.5q0 64 18 145q6 25 18 36t37 11q14 0 33 -3
q-30 -104 -30 -183q0 -125 66.5 -177t167.5 -52q234 0 234 259v362q0 27 12 40t37 13q13 0 28 -3v-258q0 -80 34.5 -122.5t96.5 -42.5q58 0 90 41.5t32 123.5v208q0 52 55 52q6 0 22 -2v-258q0 -80 34.5 -122.5t96.5 -42.5q57 0 89.5 42t32.5 123v239q0 27 12 40t37 13
q13 0 28 -3v-289q0 -83 40 -124z" />
    <glyph glyph-name="uniFEB3" unicode="&#x633;" horiz-adv-x="967" arabic-form="initial" 
d="M877 530q6 0 22 -2v-528h-189q-61 0 -104.5 25t-66.5 73q-26 -47 -69 -72.5t-100 -25.5q-58 0 -100 26t-64 76q-29 -50 -81.5 -76t-124.5 -26q-20 0 -31.5 10t-11.5 27t11.5 27t31.5 10q162 0 162 165v208q0 52 55 52q6 0 22 -2v-258q0 -80 34.5 -122.5t96.5 -42.5
q58 0 90 41.5t32 123.5v208q0 52 55 52q6 0 22 -2v-258q0 -81 36 -123t105 -42h112v404q0 52 55 52z" />
    <glyph glyph-name="uniFEB4" unicode="&#x633;" horiz-adv-x="1060" arabic-form="medial" 
d="M939 115q40 -41 121 -41v-74q-139 0 -191 100q-25 -49 -68.5 -74.5t-100.5 -25.5q-56 0 -97.5 25t-64.5 73q-25 -48 -68 -73t-100 -25q-58 0 -100 26t-64 76q-29 -50 -81.5 -76t-124.5 -26q-20 0 -31.5 10t-11.5 27t11.5 27t31.5 10q162 0 162 165v208q0 27 12 40t37 13
q13 0 28 -3v-258q0 -80 34.5 -122.5t96.5 -42.5q58 0 90 41.5t32 123.5v208q0 27 12 40t37 13q13 0 28 -3v-258q0 -80 34.5 -122.5t96.5 -42.5q57 0 89.5 42t32.5 123v239q0 27 12 40t37 13q13 0 28 -3v-289q0 -83 40 -124z" />
    <glyph glyph-name="uniFEB6" unicode="&#x634;" horiz-adv-x="1510" arabic-form="final" 
d="M886 633q-14 14 -14 33t14 32.5t33 13.5t32.5 -13.5t13.5 -32.5t-13.5 -33t-32.5 -14t-33 14zM1146 633q-14 14 -14 33t14 32.5t33 13.5t32.5 -13.5t13.5 -32.5t-13.5 -33t-32.5 -14t-33 14zM1016 764q-14 14 -14 33t14 32.5t33 13.5t32.5 -13.5t13.5 -32.5t-13.5 -33
t-32.5 -14t-33 14zM1389 115q40 -41 121 -41v-74q-139 0 -191 100q-25 -49 -68.5 -74.5t-100.5 -25.5q-56 0 -97.5 25t-64.5 73q-25 -48 -68 -73t-100 -25q-84 0 -132 53q-8 -151 -89.5 -225.5t-220.5 -74.5q-132 0 -221 69.5t-89 226.5q0 64 18 145q6 25 18 36t37 11
q14 0 33 -3q-30 -104 -30 -183q0 -125 66.5 -177t167.5 -52q234 0 234 259v362q0 27 12 40t37 13q13 0 28 -3v-258q0 -80 34.5 -122.5t96.5 -42.5q58 0 90 41.5t32 123.5v208q0 52 55 52q6 0 22 -2v-258q0 -80 34.5 -122.5t96.5 -42.5q57 0 89.5 42t32.5 123v239q0 27 12 40
t37 13q13 0 28 -3v-289q0 -83 40 -124z" />
    <glyph glyph-name="uniFEB7" unicode="&#x634;" horiz-adv-x="967" arabic-form="initial" 
d="M877 530q6 0 22 -2v-528h-189q-61 0 -104.5 25t-66.5 73q-26 -47 -69 -72.5t-100 -25.5q-58 0 -100 26t-64 76q-29 -50 -81.5 -76t-124.5 -26q-20 0 -31.5 10t-11.5 27t11.5 27t31.5 10q162 0 162 165v208q0 52 55 52q6 0 22 -2v-258q0 -80 34.5 -122.5t96.5 -42.5
q58 0 90 41.5t32 123.5v208q0 52 55 52q6 0 22 -2v-258q0 -81 36 -123t105 -42h112v404q0 52 55 52zM434 633q-14 14 -14 33t14 32.5t33 13.5t32.5 -13.5t13.5 -32.5t-13.5 -33t-32.5 -14t-33 14zM694 633q-14 14 -14 33t14 32.5t33 13.5t32.5 -13.5t13.5 -32.5t-13.5 -33
t-32.5 -14t-33 14zM564 764q-14 14 -14 33t14 32.5t33 13.5t32.5 -13.5t13.5 -32.5t-13.5 -33t-32.5 -14t-33 14z" />
    <glyph glyph-name="uniFEB8" unicode="&#x634;" horiz-adv-x="1060" arabic-form="medial" 
d="M939 115q40 -41 121 -41v-74q-139 0 -191 100q-25 -49 -68.5 -74.5t-100.5 -25.5q-56 0 -97.5 25t-64.5 73q-25 -48 -68 -73t-100 -25q-58 0 -100 26t-64 76q-29 -50 -81.5 -76t-124.5 -26q-20 0 -31.5 10t-11.5 27t11.5 27t31.5 10q162 0 162 165v208q0 27 12 40t37 13
q13 0 28 -3v-258q0 -80 34.5 -122.5t96.5 -42.5q58 0 90 41.5t32 123.5v208q0 27 12 40t37 13q13 0 28 -3v-258q0 -80 34.5 -122.5t96.5 -42.5q57 0 89.5 42t32.5 123v239q0 27 12 40t37 13q13 0 28 -3v-289q0 -83 40 -124zM436 633q-14 14 -14 33t14 32.5t33 13.5
t32.5 -13.5t13.5 -32.5t-13.5 -33t-32.5 -14t-33 14zM696 633q-14 14 -14 33t14 32.5t33 13.5t32.5 -13.5t13.5 -32.5t-13.5 -33t-32.5 -14t-33 14zM566 764q-14 14 -14 33t14 32.5t33 13.5t32.5 -13.5t13.5 -32.5t-13.5 -33t-32.5 -14t-33 14z" />
    <glyph glyph-name="uniFEBA" unicode="&#x635;" horiz-adv-x="1476" arabic-form="final" 
d="M1355 115q40 -41 121 -41v-74q-143 0 -193 104q-29 -51 -81.5 -77.5t-125.5 -26.5h-393q-20 -124 -99.5 -185.5t-205.5 -61.5q-132 0 -221 69.5t-89 226.5q0 64 18 145q5 21 19 33.5t42 12.5q17 0 27 -2q-30 -104 -30 -183q0 -125 66.5 -177t167.5 -52q234 0 234 259v393
q0 52 55 52q6 0 22 -2v-199q43 93 128 146t198 53q87 0 155.5 -37t106.5 -103t38 -149t40 -124zM1198 114.5q40 40.5 40 124.5q0 96 -60 154t-163 58q-89 0 -163.5 -41t-118.5 -111.5t-44 -153.5v-71h387q82 0 122 40.5z" />
    <glyph glyph-name="uniFEBB" unicode="&#x635;" horiz-adv-x="859" arabic-form="initial" 
d="M646.5 491q68.5 -37 106.5 -103t38 -149v-239h-791q-20 0 -31.5 10t-11.5 27t12 27t31 10h90v404q0 27 12 40t37 13q12 0 27 -3v-198q43 92 127.5 145t197.5 53q87 0 155.5 -37zM714 239q0 96 -59 154t-162 58q-86 0 -160 -39.5t-119.5 -106.5t-48.5 -148v-83h549v165z
" />
    <glyph glyph-name="uniFEBC" unicode="&#x635;" horiz-adv-x="952" arabic-form="medial" 
d="M831 115q40 -41 121 -41v-74q-143 0 -193 104q-29 -51 -81.5 -77.5t-125.5 -26.5h-552q-20 0 -31.5 10t-11.5 27t12 27t31 10h90v404q0 27 12 40t37 13q12 0 27 -3v-198q43 92 127.5 145t197.5 53q87 0 155.5 -37t106.5 -103t38 -149t40 -124zM674 114.5
q40 40.5 40 124.5q0 96 -59 154t-162 58q-86 0 -160 -39.5t-119.5 -106.5t-48.5 -148v-83h387q82 0 122 40.5z" />
    <glyph glyph-name="uniFEBE" unicode="&#x636;" horiz-adv-x="1476" arabic-form="final" 
d="M940 627q-14 14 -14 33t14 32.5t33 13.5t32.5 -13.5t13.5 -32.5t-13.5 -33t-32.5 -14t-33 14zM1355 115q40 -41 121 -41v-74q-143 0 -193 104q-29 -51 -81.5 -77.5t-125.5 -26.5h-393q-20 -124 -99.5 -185.5t-205.5 -61.5q-132 0 -221 69.5t-89 226.5q0 64 18 145
q5 21 19 33.5t42 12.5q17 0 27 -2q-30 -104 -30 -183q0 -125 66.5 -177t167.5 -52q234 0 234 259v393q0 52 55 52q6 0 22 -2v-199q43 93 128 146t198 53q87 0 155.5 -37t106.5 -103t38 -149t40 -124zM1198 114.5q40 40.5 40 124.5q0 96 -60 154t-163 58q-89 0 -163.5 -41
t-118.5 -111.5t-44 -153.5v-71h387q82 0 122 40.5z" />
    <glyph glyph-name="uniFEBF" unicode="&#x636;" horiz-adv-x="859" arabic-form="initial" 
d="M646.5 491q68.5 -37 106.5 -103t38 -149v-239h-791q-20 0 -31.5 10t-11.5 27t12 27t31 10h90v404q0 27 12 40t37 13q12 0 27 -3v-198q43 92 127.5 145t197.5 53q87 0 155.5 -37zM714 239q0 96 -59 154t-162 58q-86 0 -160 -39.5t-119.5 -106.5t-48.5 -148v-83h549v165z
M401 625q-14 14 -14 33t14 32.5t33 13.5t32.5 -13.5t13.5 -32.5t-13.5 -33t-32.5 -14t-33 14z" />
    <glyph glyph-name="uniFEC0" unicode="&#x636;" horiz-adv-x="952" arabic-form="medial" 
d="M401 625q-14 14 -14 33t14 32.5t33 13.5t32.5 -13.5t13.5 -32.5t-13.5 -33t-32.5 -14t-33 14zM831 115q40 -41 121 -41v-74q-143 0 -193 104q-29 -51 -81.5 -77.5t-125.5 -26.5h-552q-20 0 -31.5 10t-11.5 27t12 27t31 10h90v404q0 27 12 40t37 13q12 0 27 -3v-198
q43 92 127.5 145t197.5 53q87 0 155.5 -37t106.5 -103t38 -149t40 -124zM674 114.5q40 40.5 40 124.5q0 96 -59 154t-162 58q-86 0 -160 -39.5t-119.5 -106.5t-48.5 -148v-83h387q82 0 122 40.5z" />
    <glyph glyph-name="uniFEC2" unicode="&#x637;" horiz-adv-x="1061" arabic-form="final" 
d="M940 115q40 -41 121 -41v-74q-143 0 -193 104q-29 -51 -81.5 -77.5t-125.5 -26.5h-593v74h131v610q0 27 12 40t37 13q12 0 27 -3l-1 -404q44 92 128.5 145t197.5 53q87 0 155.5 -37t106.5 -103t38 -149t40 -124zM783 114.5q40 40.5 40 124.5q0 96 -60 154t-163 58
q-87 0 -160.5 -39.5t-118 -107.5t-47.5 -149v-81h387q82 0 122 40.5z" />
    <glyph glyph-name="uniFEC3" unicode="&#x637;" horiz-adv-x="857" arabic-form="initial" 
d="M644.5 491q68.5 -37 106.5 -103t38 -149v-239h-790q-20 0 -31 10t-11 27q0 16 11 26t31 11h89v610q0 27 12 40t37 13q12 0 27 -3l-1 -404q44 92 128.5 145t197.5 53q87 0 155.5 -37zM712 239q0 96 -60 154t-163 58q-87 0 -160.5 -39.5t-118 -107.5t-47.5 -149v-81h549
v165z" />
    <glyph glyph-name="uniFEC4" unicode="&#x637;" horiz-adv-x="950" arabic-form="medial" 
d="M829 115q40 -41 121 -41v-74q-143 0 -193 104q-29 -51 -81.5 -77.5t-125.5 -26.5h-551q-20 0 -31 10t-11 27q0 16 11 26t31 11h89v610q0 27 12 40t37 13q12 0 27 -3l-1 -404q44 92 128.5 145t197.5 53q87 0 155.5 -37t106.5 -103t38 -149t40 -124zM672 114.5
q40 40.5 40 124.5q0 96 -60 154t-163 58q-87 0 -160.5 -39.5t-118 -107.5t-47.5 -149v-81h387q82 0 122 40.5z" />
    <glyph glyph-name="uniFEC6" unicode="&#x638;" horiz-adv-x="1061" arabic-form="final" 
d="M520 626q-14 14 -14 33t14 32.5t33 13.5t32.5 -13.5t13.5 -32.5t-13.5 -33t-32.5 -14t-33 14zM940 115q40 -41 121 -41v-74q-143 0 -193 104q-29 -51 -81.5 -77.5t-125.5 -26.5h-593v74h131v610q0 27 12 40t37 13q12 0 27 -3l-1 -404q44 92 128.5 145t197.5 53
q87 0 155.5 -37t106.5 -103t38 -149t40 -124zM783 114.5q40 40.5 40 124.5q0 96 -60 154t-163 58q-87 0 -160.5 -39.5t-118 -107.5t-47.5 -149v-81h387q82 0 122 40.5z" />
    <glyph glyph-name="uniFEC7" unicode="&#x638;" horiz-adv-x="857" arabic-form="initial" 
d="M644.5 491q68.5 -37 106.5 -103t38 -149v-239h-790q-20 0 -31 10t-11 27q0 16 11 26t31 11h89v610q0 27 12 40t37 13q12 0 27 -3l-1 -404q44 92 128.5 145t197.5 53q87 0 155.5 -37zM712 239q0 96 -60 154t-163 58q-87 0 -160.5 -39.5t-118 -107.5t-47.5 -149v-81h549
v165zM410 625q-14 14 -14 33t14 32.5t33 13.5t32.5 -13.5t13.5 -32.5t-13.5 -33t-32.5 -14t-33 14z" />
    <glyph glyph-name="uniFEC8" unicode="&#x638;" horiz-adv-x="950" arabic-form="medial" 
d="M410 625q-14 14 -14 33t14 32.5t33 13.5t32.5 -13.5t13.5 -32.5t-13.5 -33t-32.5 -14t-33 14zM829 115q40 -41 121 -41v-74q-143 0 -193 104q-29 -51 -81.5 -77.5t-125.5 -26.5h-551q-20 0 -31 10t-11 27q0 16 11 26t31 11h89v610q0 27 12 40t37 13q12 0 27 -3l-1 -404
q44 92 128.5 145t197.5 53q87 0 155.5 -37t106.5 -103t38 -149t40 -124zM672 114.5q40 40.5 40 124.5q0 96 -60 154t-163 58q-87 0 -160.5 -39.5t-118 -107.5t-47.5 -149v-81h387q82 0 122 40.5z" />
    <glyph glyph-name="uniFECA" unicode="&#x639;" horiz-adv-x="780" arabic-form="final" 
d="M780 74v-74h-288q-25 0 -39.5 8t-31.5 33q-17 -26 -31 -33.5t-42 -7.5h-14q-99 0 -144 -32t-45 -103q0 -70 45.5 -103t143.5 -33h104v-73h-104q-130 0 -198 53.5t-68 155.5q0 98 63 151.5t184 57.5l-167 154v24q0 75 36.5 138.5t99 100.5t136.5 37q75 0 137.5 -37
t99 -100t36.5 -139v-24l-167 -154h254zM616 263q-4 53 -31 96t-70.5 67.5t-94.5 24.5t-94.5 -24.5t-70.5 -67.5t-31 -96l196 -185z" />
    <glyph glyph-name="uniFECB" unicode="&#x639;" horiz-adv-x="586" arabic-form="initial" 
d="M518 0h-518q-18 0 -30.5 10.5t-12.5 26.5t12.5 26.5t30.5 10.5h140q-92 53 -92 181q0 80 38 142.5t102 96.5t140 34q59 0 121 -22q37 -14 37 -40q0 -20 -19 -51q-43 18 -77 26.5t-69 8.5q-56 0 -101 -24t-70 -68.5t-25 -102.5q0 -90 54 -135.5t148 -45.5h191v-74z" />
    <glyph glyph-name="uniFECC" unicode="&#x639;" horiz-adv-x="720" arabic-form="medial" 
d="M720 74v-74h-288q-25 0 -39.5 7t-32.5 33q-19 -27 -33 -33.5t-39 -6.5h-288q-19 0 -31 11t-12 28q0 16 11.5 25.5t31.5 9.5h254l-166 154v24q0 75 36.5 138.5t99 100.5t136.5 37q75 0 137.5 -37t99 -100t36.5 -139v-24l-167 -154h254zM556 263q-4 53 -31 96t-70.5 67.5
t-94.5 24.5t-94.5 -24.5t-70.5 -67.5t-31 -96l196 -185z" />
    <glyph glyph-name="uniFECE" unicode="&#x63a;" horiz-adv-x="780" arabic-form="final" 
d="M780 74v-74h-288q-25 0 -39.5 8t-31.5 33q-17 -26 -31 -33.5t-42 -7.5h-14q-99 0 -144 -32t-45 -103q0 -70 45.5 -103t143.5 -33h104v-73h-104q-130 0 -198 53.5t-68 155.5q0 98 63 151.5t184 57.5l-167 154v24q0 75 36.5 138.5t99 100.5t136.5 37q75 0 137.5 -37
t99 -100t36.5 -139v-24l-167 -154h254zM616 263q-4 53 -31 96t-70.5 67.5t-94.5 24.5t-94.5 -24.5t-70.5 -67.5t-31 -96l196 -185zM387 627q-14 14 -14 33t14 32.5t33 13.5t32.5 -13.5t13.5 -32.5t-13.5 -33t-32.5 -14t-33 14z" />
    <glyph glyph-name="uniFECF" unicode="&#x63a;" horiz-adv-x="586" arabic-form="initial" 
d="M518 0h-518q-18 0 -30.5 10.5t-12.5 26.5t12.5 26.5t30.5 10.5h140q-92 53 -92 181q0 80 38 142.5t102 96.5t140 34q59 0 121 -22q37 -14 37 -40q0 -20 -19 -51q-43 18 -77 26.5t-69 8.5q-56 0 -101 -24t-70 -68.5t-25 -102.5q0 -90 54 -135.5t148 -45.5h191v-74z
M270 627q-14 14 -14 33t14 32.5t33 13.5t32.5 -13.5t13.5 -32.5t-13.5 -33t-32.5 -14t-33 14z" />
    <glyph glyph-name="uniFED0" unicode="&#x63a;" horiz-adv-x="720" arabic-form="medial" 
d="M720 74v-74h-288q-25 0 -39.5 7t-32.5 33q-19 -27 -33 -33.5t-39 -6.5h-288q-19 0 -31 11t-12 28q0 16 11.5 25.5t31.5 9.5h254l-166 154v24q0 75 36.5 138.5t99 100.5t136.5 37q75 0 137.5 -37t99 -100t36.5 -139v-24l-167 -154h254zM556 263q-4 53 -31 96t-70.5 67.5
t-94.5 24.5t-94.5 -24.5t-70.5 -67.5t-31 -96l196 -185zM327 627q-14 14 -14 33t14 32.5t33 13.5t32.5 -13.5t13.5 -32.5t-13.5 -33t-32.5 -14t-33 14z" />
    <glyph glyph-name="uniFED2" unicode="&#x641;" horiz-adv-x="1177" arabic-form="final" 
d="M1177 74v-74h-797q-85 0 -154.5 28.5t-111 87.5t-41.5 148q0 50 13 103q6 24 19 35t38 11q14 0 32 -3q-23 -72 -23 -132q0 -103 64 -153.5t164 -50.5h250q-33 36 -50 85t-17 101q0 69 28.5 130.5t84 99.5t133.5 38q77 0 132.5 -37.5t83.5 -98t28 -129.5
q0 -53 -17.5 -102.5t-50.5 -86.5h192zM716 424q-38 -27 -57.5 -70.5t-19.5 -92.5t19.5 -91.5t58 -69t92.5 -26.5t91.5 26t56.5 68t19 90q0 50 -19.5 94t-57.5 71.5t-92 27.5q-53 0 -91 -27zM775 627q-14 14 -14 33t14 32.5t33 13.5t32.5 -13.5t13.5 -32.5t-13.5 -33
t-32.5 -14t-33 14z" />
    <glyph glyph-name="uniFED3" unicode="&#x641;" horiz-adv-x="645" arabic-form="initial" 
d="M465.5 490.5q55.5 -37.5 83.5 -98t28 -129.5q0 -68 -28 -128.5t-84 -97.5t-134 -37h-331q-20 0 -31.5 9.5t-11.5 26.5q0 19 11.5 28.5t31.5 9.5h154q-33 36 -50 85t-17 101q0 69 28.5 130.5t84 99.5t133.5 38q77 0 132.5 -37.5zM424.5 100q37.5 26 56.5 68t19 90
q0 50 -19.5 94t-57.5 71.5t-92 27.5q-53 0 -91 -27t-57.5 -70.5t-19.5 -92.5t19.5 -91.5t58 -69t92.5 -26.5t91.5 26zM300 627q-14 14 -14 33t14 32.5t33 13.5t32.5 -13.5t13.5 -32.5t-13.5 -33t-32.5 -14t-33 14z" />
    <glyph glyph-name="uniFED4" unicode="&#x641;" horiz-adv-x="681" arabic-form="medial" 
d="M681 74v-74h-681q-20 0 -31.5 9.5t-11.5 26.5q0 19 11.5 28.5t31.5 9.5h154q-33 36 -50 85t-17 101q0 69 28.5 130.5t84 99.5t133.5 38q77 0 132.5 -37.5t83.5 -98t28 -129.5q0 -53 -17.5 -102.5t-50.5 -86.5h172zM240 424q-38 -27 -57.5 -70.5t-19.5 -92.5t19.5 -91.5
t58 -69t92.5 -26.5t91.5 26t56.5 68t19 90q0 50 -19.5 94t-57.5 71.5t-92 27.5q-53 0 -91 -27zM301 627q-14 14 -14 33t14 32.5t33 13.5t32.5 -13.5t13.5 -32.5t-13.5 -33t-32.5 -14t-33 14z" />
    <glyph glyph-name="uniFED6" unicode="&#x642;" horiz-adv-x="919" arabic-form="final" 
d="M463 625q-14 14 -14 33t14 32.5t33 13.5t32.5 -13.5t13.5 -32.5t-13.5 -33t-32.5 -14t-33 14zM623 625q-14 14 -14 33t14 32.5t33 13.5t32.5 -13.5t13.5 -32.5t-13.5 -33t-32.5 -14t-33 14zM919 0h-99q-7 -297 -371 -297q-171 0 -273.5 75.5t-102.5 234.5q0 41 7 80
q4 25 16.5 36.5t37.5 11.5q13 0 31 -3q-14 -67 -14 -116q0 -129 78.5 -185.5t219.5 -56.5q153 0 222.5 51.5t73.5 168.5h-167q-76 0 -130.5 36.5t-82.5 96t-28 126.5q0 68 29 130t84 100t130 38q71 0 125.5 -35.5t84.5 -98.5t30 -144v-175h99v-74zM432 170.5
q20 -43.5 58 -70t90 -26.5h165v177q0 59 -21 104t-59 70t-87 25q-51 0 -89 -26.5t-57.5 -70t-19.5 -91.5t20 -91.5z" />
    <glyph glyph-name="uniFED7" unicode="&#x642;" horiz-adv-x="645" arabic-form="initial" 
d="M465.5 490.5q55.5 -37.5 83.5 -98t28 -129.5q0 -68 -28 -128.5t-84 -97.5t-134 -37h-331q-20 0 -31.5 9.5t-11.5 26.5q0 19 11.5 28.5t31.5 9.5h154q-33 36 -50 85t-17 101q0 69 28.5 130.5t84 99.5t133.5 38q77 0 132.5 -37.5zM424.5 100q37.5 26 56.5 68t19 90
q0 50 -19.5 94t-57.5 71.5t-92 27.5q-53 0 -91 -27t-57.5 -70.5t-19.5 -92.5t19.5 -91.5t58 -69t92.5 -26.5t91.5 26zM221 627q-14 14 -14 33t14 32.5t33 13.5t32.5 -13.5t13.5 -32.5t-13.5 -33t-32.5 -14t-33 14zM381 627q-14 14 -14 33t14 32.5t33 13.5t32.5 -13.5
t13.5 -32.5t-13.5 -33t-32.5 -14t-33 14z" />
    <glyph glyph-name="uniFED8" unicode="&#x642;" horiz-adv-x="681" arabic-form="medial" 
d="M681 74v-74h-681q-20 0 -31.5 9.5t-11.5 26.5q0 19 11.5 28.5t31.5 9.5h154q-33 36 -50 85t-17 101q0 69 28.5 130.5t84 99.5t133.5 38q77 0 132.5 -37.5t83.5 -98t28 -129.5q0 -53 -17.5 -102.5t-50.5 -86.5h172zM240 424q-38 -27 -57.5 -70.5t-19.5 -92.5t19.5 -91.5
t58 -69t92.5 -26.5t91.5 26t56.5 68t19 90q0 50 -19.5 94t-57.5 71.5t-92 27.5q-53 0 -91 -27zM220 627q-14 14 -14 33t14 32.5t33 13.5t32.5 -13.5t13.5 -32.5t-13.5 -33t-32.5 -14t-33 14zM380 627q-14 14 -14 33t14 32.5t33 13.5t32.5 -13.5t13.5 -32.5t-13.5 -33
t-32.5 -14t-33 14z" />
    <glyph glyph-name="uniFEDA" unicode="&#x643;" horiz-adv-x="1047" arabic-form="final" 
d="M926 115q40 -41 121 -41v-74q-143 0 -193 104q-29 -51 -81.5 -77.5t-125.5 -26.5h-267q-85 0 -154.5 28.5t-111 87.5t-41.5 148q0 50 13 103q11 45 63 45q16 0 26 -2q-23 -72 -23 -132q0 -103 64 -153.5t164 -50.5h267q162 0 162 165v445q0 52 55 52q6 0 22 -2v-495
q0 -83 40 -124zM604 411h-250v71h32q-27 29 -27 75q0 52 38 84t93 32q30 0 59 -10q24 -8 24 -31q0 -22 -23 -48q-31 16 -58 16q-26 0 -42 -14.5t-16 -40.5q0 -29 19.5 -46t48.5 -17h102v-71z" />
    <glyph glyph-name="uniFEDB" unicode="&#x643;" horiz-adv-x="579" arabic-form="initial" 
d="M325.5 441q86.5 -42 130 -120.5t43.5 -202.5v-118h-499q-18 0 -28.5 11t-10.5 26t10.5 26t28.5 11h422v44q0 110 -42.5 176.5t-125 99.5t-212.5 43l-6 62q-2 21 4.5 35.5t23.5 26.5q82 57 179.5 100t203.5 67q14 2 18 2q46 0 46 -66q-125 -25 -232 -69t-176 -95
q136 -17 222.5 -59z" />
    <glyph glyph-name="uniFEDC" unicode="&#x643;" horiz-adv-x="657" arabic-form="medial" 
d="M657 74v-74q-140 0 -190 99q-31 -48 -88 -73.5t-134 -25.5h-245q-18 0 -28.5 11t-10.5 26t10.5 26t28.5 11h245q87 0 132 36.5t45 107.5q0 93 -96.5 149t-283.5 70l-6 62q-2 21 4.5 35.5t23.5 26.5q82 57 179.5 100t203.5 67q14 2 18 2q46 0 46 -66q-125 -25 -232 -69
t-176 -95q196 -24 296 -95t100 -187v-15q15 -131 158 -129z" />
    <glyph glyph-name="uniFEDE" unicode="&#x644;" horiz-adv-x="801" arabic-form="final" 
d="M801 0h-117q-20 -124 -99.5 -185.5t-205.5 -61.5q-132 0 -221 69.5t-89 226.5q0 64 18 145q5 21 19 33.5t42 12.5q17 0 27 -2q-30 -104 -30 -183q0 -125 66.5 -177t167.5 -52q234 0 234 259v599q0 52 55 52q6 0 22 -2v-649v-11h111v-74z" />
    <glyph glyph-name="uniFEDF" unicode="&#x644;" horiz-adv-x="307" arabic-form="initial" 
d="M162 684q0 27 12 40t37 13q13 0 28 -3v-734h-239q-19 0 -31 10t-12 27t12 27t31 10h162v610z" />
    <glyph glyph-name="uniFEE0" unicode="&#x644;" horiz-adv-x="400" arabic-form="medial" 
d="M279 115q40 -41 121 -41v-74q-143 0 -193 104q-29 -51 -81.5 -77.5t-125.5 -26.5q-20 0 -31.5 10t-11.5 27t11.5 27t31.5 10q162 0 162 165v445q0 27 12 40t37 13q13 0 28 -3v-495q0 -83 40 -124z" />
    <glyph glyph-name="uniFEE2" unicode="&#x645;" horiz-adv-x="888" arabic-form="final" 
d="M888 74v-74q-149 0 -197 114q-33 -55 -87.5 -85t-117.5 -30q-44 0 -87.5 15.5t-81.5 45.5v-53q-1 -122 -41.5 -188t-131.5 -66q-36 0 -76 10v73q31 -8 61 -8q62 0 87 44t25 135v239q0 82 30 146t85 100t128 36q71 0 126.5 -35.5t86.5 -97.5t31 -139q0 -17 -1 -25
q4 -157 161 -157zM564 94q40 22 63.5 63.5t23.5 98.5q0 85 -45 140t-120 55q-79 0 -124 -56t-44 -149v-105q34 -34 75.5 -51.5t83.5 -17.5q47 0 87 22z" />
    <glyph glyph-name="uniFEE3" unicode="&#x645;" horiz-adv-x="686" arabic-form="initial" 
d="M500.5 492.5q55.5 -35.5 86.5 -97.5t31 -139q0 -79 -33.5 -137t-89 -89t-119.5 -31q-57 0 -111 25t-96 74l-1 -2q-23 -46 -66.5 -71t-101.5 -25q-19 0 -31 11t-12 28q0 16 11.5 25.5t31.5 9.5q37 0 65.5 17t41.5 47q11 25 16 56.5t6 37.5q6 49 15 84q26 103 84 157.5
t146 54.5q71 0 126.5 -35.5zM457 94.5q38 21.5 61 63t23 98.5q0 86 -45.5 140.5t-121.5 54.5q-59 0 -96 -35.5t-58 -107.5q-12 -41 -19 -92l-9 -46q38 -48 85.5 -72.5t95.5 -24.5q46 0 84 21.5z" />
    <glyph glyph-name="uniFEE4" unicode="&#x645;" horiz-adv-x="778" arabic-form="medial" 
d="M778 74v-74q-149 0 -197 114q-33 -55 -87.5 -85t-117.5 -30q-57 0 -111 25t-96 74l-1 -2q-23 -46 -66.5 -71t-101.5 -25q-19 0 -31 11t-12 28q0 16 11.5 25.5t31.5 9.5q37 0 65.5 17t41.5 47q11 25 16 56.5t6 37.5q6 49 15 84q26 103 84 157.5t146 54.5q71 0 126.5 -35.5
t86.5 -97.5t31 -139q0 -17 -1 -25q4 -157 161 -157zM457 94.5q38 21.5 61 63t23 98.5q0 86 -45.5 140.5t-121.5 54.5q-59 0 -96 -35.5t-58 -107.5q-12 -41 -19 -92l-9 -46q38 -48 85.5 -72.5t95.5 -24.5q46 0 84 21.5z" />
    <glyph glyph-name="uniFEE6" unicode="&#x646;" horiz-adv-x="801" arabic-form="final" 
d="M347 388q-14 14 -14 33t14 32.5t33 13.5t32.5 -13.5t13.5 -32.5t-13.5 -33t-32.5 -14t-33 14zM801 0h-117q-20 -124 -99.5 -185.5t-205.5 -61.5q-132 0 -221 69.5t-89 226.5q0 64 18 145q5 21 19 33.5t42 12.5q17 0 27 -2q-30 -104 -30 -183q0 -125 66.5 -177t167.5 -52
q234 0 234 259v275q0 52 55 52q6 0 22 -2v-325v-11h111v-74z" />
    <glyph glyph-name="uniFEE7" unicode="&#x646;" horiz-adv-x="315" arabic-form="initial" 
d="M162 410q0 27 12 40t37 13q13 0 28 -3v-460h-239q-19 0 -31 11t-12 28q0 16 11.5 25.5t31.5 9.5h162v336zM168 579q-14 14 -14 33t14 32.5t33 13.5t32.5 -13.5t13.5 -32.5t-13.5 -33t-32.5 -14t-33 14z" />
    <glyph glyph-name="uniFEE8" unicode="&#x646;" horiz-adv-x="400" arabic-form="medial" 
d="M168 579q-14 14 -14 33t14 32.5t33 13.5t32.5 -13.5t13.5 -32.5t-13.5 -33t-32.5 -14t-33 14zM279 115q40 -41 121 -41v-74q-143 0 -193 104q-29 -51 -81.5 -77.5t-125.5 -26.5q-19 0 -31 11t-12 28q0 16 11.5 25.5t31.5 9.5q162 0 162 165v171q0 27 12 40t37 13
q13 0 28 -3v-221q0 -83 40 -124z" />
    <glyph glyph-name="uniFEEA" unicode="&#x647;" horiz-adv-x="715" arabic-form="final" 
d="M594 115q40 -41 121 -41v-74q-87 0 -145 38.5t-80 109.5q-52 -128 -207 -128q-61 0 -110 28.5t-77 81t-28 121.5q0 87 41 149t112.5 94t161.5 32q43 0 94 -8v6q0 27 12 40t37 13q13 0 28 -3v-335q0 -83 40 -124zM393.5 118.5q39.5 26.5 61.5 73.5t22 108v147
q-46 10 -92 10q-70 0 -124.5 -25t-85 -72t-30.5 -111q0 -74 42 -115.5t116 -41.5q51 0 90.5 26.5z" />
    <glyph glyph-name="uniFEEB" unicode="&#x647;" horiz-adv-x="777" arabic-form="initial" 
d="M519.5 591q89.5 -46 139.5 -133.5t50 -209.5v-248h-709q-16 0 -27.5 11.5t-11.5 27.5q0 15 11 24.5t28 10.5h113q-39 56 -39 130q0 55 22 103.5t65.5 78.5t103.5 30q61 0 104 -29.5t64.5 -77t21.5 -101.5v-134h177v174q0 100 -41 170.5t-114.5 106.5t-168.5 36
q-101 0 -206 -39q-15 24 -15 42q0 33 40 45q96 28 187 28q116 0 205.5 -46zM179.5 114q30.5 -40 85.5 -40h115v130q0 55 -31.5 96.5t-85.5 41.5q-53 0 -83.5 -40t-30.5 -94t30.5 -94z" />
    <glyph glyph-name="uniFEEC" unicode="&#x647;" horiz-adv-x="865" arabic-form="medial" 
d="M866 74v-74q-155 0 -200 122q-34 -59 -92.5 -90.5t-136.5 -31.5h-437q-16 0 -27.5 11.5t-11.5 27.5q0 15 11 24.5t28 10.5h113q-39 56 -39 130q0 55 22 103.5t65.5 78.5t103.5 30q61 0 104 -29.5t64.5 -77t21.5 -101.5v-133q83 6 130 65t47 158q0 76 -41.5 136
t-115.5 93.5t-167 33.5q-101 0 -206 -39q-15 24 -15 42q0 33 40 45q96 28 187 28q114 0 204 -43t140.5 -120.5t50.5 -175.5q0 -35 -4 -60q0 -164 161 -164zM179.5 114q30.5 -40 85.5 -40h115v130q0 55 -31.5 96.5t-85.5 41.5q-53 0 -83.5 -40t-30.5 -94t30.5 -94z" />
    <glyph glyph-name="uniFEEE" unicode="&#x648;" horiz-adv-x="651" arabic-form="final" 
d="M651 0h-104q-15 -123 -78.5 -186.5t-174.5 -63.5q-53 0 -107 11v72q56 -8 96 -8q87 0 132 41t57 134h-163q-76 0 -130.5 36.5t-82.5 96t-28 126.5q0 68 29 130t84 100t130 38q71 0 125.5 -35.5t84.5 -98.5t30 -144v-175h100v-74zM476 74v4v173q0 59 -21 104t-59 70
t-87 25q-51 0 -89 -26.5t-57.5 -70t-19.5 -91.5t20 -91.5t58 -70t90 -26.5h165z" />
    <glyph glyph-name="uniFEF0" unicode="&#x649;" horiz-adv-x="840" arabic-form="final" 
d="M840 0q-14 0 -42 2q17 -36 17 -85q0 -112 -78.5 -162t-251.5 -50h-59q-161 0 -257 74.5t-96 233.5q0 59 15 131q5 25 17.5 36t37.5 11q14 0 32 -3q-25 -96 -25 -168q0 -242 276 -242h59q98 0 152 13t77.5 43t23.5 83q0 47 -19.5 70t-73.5 38l-58 14l-78 19q0 63 43 63
q10 0 22 -3q95 -23 152.5 -33.5t113.5 -10.5v-74z" />
    <glyph glyph-name="uniFEF2" unicode="&#x64a;" horiz-adv-x="840" arabic-form="final" 
d="M840 0q-14 0 -42 2q17 -36 17 -85q0 -112 -78.5 -162t-251.5 -50h-59q-161 0 -257 74.5t-96 233.5q0 59 15 131q5 25 17.5 36t37.5 11q14 0 32 -3q-25 -96 -25 -168q0 -242 276 -242h59q98 0 152 13t77.5 43t23.5 83q0 47 -19.5 70t-73.5 38l-58 14l-78 19q0 63 43 63
q10 0 22 -3q95 -23 152.5 -33.5t113.5 -10.5v-74zM342 -454q-14 14 -14 33t14 32.5t33 13.5t32.5 -13.5t13.5 -32.5t-13.5 -33t-32.5 -14t-33 14zM502 -454q-14 14 -14 33t14 32.5t33 13.5t32.5 -13.5t13.5 -32.5t-13.5 -33t-32.5 -14t-33 14z" />
    <glyph glyph-name="uniFEF3" unicode="&#x64a;" horiz-adv-x="319" arabic-form="initial" 
d="M162 410q0 27 12 40t37 13q13 0 28 -3v-460h-239q-19 0 -31 11t-12 28q0 16 11.5 25.5t31.5 9.5h162v336zM50 -169q-14 14 -14 33t14 32.5t33 13.5t32.5 -13.5t13.5 -32.5t-13.5 -33t-32.5 -14t-33 14zM210 -169q-14 14 -14 33t14 32.5t33 13.5t32.5 -13.5t13.5 -32.5
t-13.5 -33t-32.5 -14t-33 14z" />
    <glyph glyph-name="uniFEF4" unicode="&#x64a;" horiz-adv-x="400" arabic-form="medial" 
d="M279 115q40 -41 121 -41v-74q-143 0 -193 104q-29 -51 -81.5 -77.5t-125.5 -26.5q-19 0 -31 11t-12 28q0 16 11.5 25.5t31.5 9.5q162 0 162 165v171q0 27 12 40t37 13q13 0 28 -3v-221q0 -83 40 -124zM87 -169q-14 14 -14 33t14 32.5t33 13.5t32.5 -13.5t13.5 -32.5
t-13.5 -33t-32.5 -14t-33 14zM247 -169q-14 14 -14 33t14 32.5t33 13.5t32.5 -13.5t13.5 -32.5t-13.5 -33t-32.5 -14t-33 14z" />
    <glyph glyph-name=".notdef" horiz-adv-x="500" 
d="M500 800v-1000h-500v1000h500zM429 750h-358l179 -390zM50 676v-752l172 376zM450 -76v752l-172 -376zM429 -150l-179 390l-179 -390h358z" />
    <glyph glyph-name=".null" 
 />
    <glyph glyph-name="nonmarkingreturn" horiz-adv-x="333" 
 />
    <glyph glyph-name="space" unicode=" " horiz-adv-x="200" 
 />
    <glyph glyph-name="exclam" unicode="!" horiz-adv-x="271" 
d="M91 700h90v-56l-24 -446h-43l-23 446v56zM102 92q12 13 34 13t34 -13t12 -37v-5q0 -24 -12 -37t-34 -13t-34 13t-12 37v5q0 24 12 37z" />
    <glyph glyph-name="quotedbl" unicode="&#x22;" horiz-adv-x="440" 
d="M188 700v-5l-81 -267h-42l30 272h93zM383 700v-5l-81 -267h-42l31 272h92z" />
    <glyph glyph-name="numbersign" unicode="#" horiz-adv-x="700" 
d="M485 177l-22 -132q-5 -25 -16.5 -36.5t-34.5 -11.5q-12 0 -27 3l30 177h-191l-22 -132q-5 -25 -16.5 -36.5t-34.5 -11.5q-12 0 -27 3l30 177h-59q-53 0 -53 46q0 11 3 23h121l36 212h-68q-53 0 -53 46q0 11 3 23h130l22 128q5 25 16.5 36.5t34.5 11.5q12 0 27 -3
l-30 -173h191l22 128q5 25 16.5 36.5t34.5 11.5q12 0 27 -3l-30 -173h59q53 0 53 -46q0 -11 -3 -23h-121l-36 -212h68q53 0 53 -46q0 -11 -3 -23h-130zM427 245l36 214h-190l-37 -214h191z" />
    <glyph glyph-name="dollar" unicode="$" horiz-adv-x="636" 
d="M353 630v-247q114 -25 165 -71t51 -123q0 -80 -59 -131.5t-154 -57.5v-98h-64v100q-107 10 -197 73q-26 18 -26 40q0 25 32 50q47 -42 93.5 -65.5t100.5 -30.5v251q-113 27 -163 71.5t-50 122.5v1q0 51 27 92t74.5 65.5t108.5 27.5v58h64v-60q80 -8 150 -51
q28 -19 28 -42t-30 -47q-74 60 -151 72zM187.5 446q28.5 -28 107.5 -49v236q-62 -3 -99 -34.5t-37 -78.5q0 -46 28.5 -74zM462.5 258q-29.5 28 -109.5 49v-241q64 4 101.5 36t37.5 81v1q0 46 -29.5 74z" />
    <glyph glyph-name="percent" unicode="%" horiz-adv-x="834" 
d="M128 374.5q-36 24.5 -56 65t-20 87.5v2q0 48 20 89t56.5 65.5t83.5 24.5q46 0 81.5 -24.5t55.5 -65t20 -87.5v-2q0 -48 -20 -89t-56.5 -65.5t-82.5 -24.5t-82 24.5zM709 700l-270 -367l-243 -333h-72l270 365l244 335h71zM144.5 617q-25.5 -35 -25.5 -86v-2
q0 -52 27 -87.5t66 -35.5q40 0 65.5 35t25.5 86v2q0 52 -27 87.5t-66 35.5q-40 0 -65.5 -35zM540.5 16.5q-35.5 24.5 -55.5 65t-20 87.5v2q0 48 20 89t56.5 65.5t82.5 24.5t82 -24.5t55.5 -65t19.5 -87.5v-2q0 -48 -20 -89t-56 -65.5t-83 -24.5q-46 0 -81.5 24.5zM689.5 83
q25.5 35 25.5 86v2q0 52 -27 87.5t-66 35.5q-40 0 -65.5 -35t-25.5 -86v-2q0 -52 27 -87.5t66 -35.5q40 0 65.5 35z" />
    <glyph glyph-name="quotesingle" unicode="'" horiz-adv-x="245" 
d="M189 700v-5l-81 -267h-43l30 272h94z" />
    <glyph glyph-name="parenleft" unicode="(" horiz-adv-x="434" 
d="M139 43q-71 108 -71 244t71 244t206 184l33 -51q-116 -74 -174 -166.5t-58 -210.5t58 -210.5t174 -166.5l-33 -51q-135 76 -206 184z" />
    <glyph glyph-name="parenright" unicode=")" horiz-adv-x="434" 
d="M230 76.5q58 92.5 58 210.5t-58 210.5t-174 166.5l33 51q135 -76 206 -184t71 -244t-71 -244t-206 -184l-33 51q116 74 174 166.5z" />
    <glyph glyph-name="asterisk" unicode="*" horiz-adv-x="430" 
d="M96 449l-27 47l116 53l-116 54l27 46l103 -72l-10 125h52l-10 -125l103 72l27 -46l-116 -54l116 -53l-27 -47l-103 73l10 -125h-52l10 125z" />
    <glyph glyph-name="plus" unicode="+" horiz-adv-x="625" 
d="M68 316v72h207v206h75v-206h207v-72h-207v-206h-75v206h-207z" />
    <glyph glyph-name="comma" unicode="," horiz-adv-x="245" 
d="M100 -52.5q16 20.5 13 52.5h-36v105h92v-90q0 -60 -26.5 -92t-84.5 -45l-12 35q38 14 54 34.5z" />
    <glyph glyph-name="hyphen" unicode="-" horiz-adv-x="408" 
d="M343 341v-81h-278v81h278z" />
    <glyph glyph-name="period" unicode="." horiz-adv-x="245" 
d="M89 92q12 13 34 13t34 -13t12 -37v-5q0 -24 -12 -37t-34 -13t-34 13t-12 37v5q0 24 12 37z" />
    <glyph glyph-name="slash" unicode="/" horiz-adv-x="508" 
d="M514 798l-464 -926h-71l464 926h71z" />
    <glyph glyph-name="zero" unicode="0" horiz-adv-x="715" 
d="M202 36.5q-67 48.5 -103.5 131t-36.5 180.5v2q0 98 37 181t104.5 132t155.5 49t154.5 -48.5t103 -131t36.5 -180.5v-2q0 -98 -37 -181t-104.5 -132t-154.5 -49q-88 0 -155 48.5zM470.5 99.5q48.5 39.5 74.5 105.5t26 143v2q0 77 -26.5 143.5t-75.5 106.5t-112 40
q-64 0 -112 -39.5t-74.5 -105t-26.5 -143.5v-2q0 -77 27 -143.5t76 -106.5t112 -40t111.5 39.5z" />
    <glyph glyph-name="one" unicode="1" horiz-adv-x="358" 
d="M47 582q-12 24 -12 39q0 26 39 41l95 33q18 7 34.5 8.5t53.5 1.5v-705h-78v623z" />
    <glyph glyph-name="two" unicode="2" horiz-adv-x="599" 
d="M54.5 59q6.5 12 21.5 26l226 200q82 73 114 120.5t32 99.5q0 60 -41 97t-100 37q-57 0 -100.5 -29t-87.5 -91q-44 18 -44 46q0 18 16 37q43 55 95 81.5t127 26.5q62 0 111.5 -25.5t77.5 -71t28 -101.5v-2q0 -50 -18 -91t-55 -82t-104 -99l-187 -166h371v-72h-489v31
q0 16 6.5 28z" />
    <glyph glyph-name="three" unicode="3" horiz-adv-x="613" 
d="M83 76q-16 16 -16 34q0 27 41 54q84 -104 204 -104q65 0 109 38t44 98v2q0 64 -54 99.5t-142 35.5h-45l-16 47l221 249h-342q-3 14 -3 24q0 47 53 47h397v-58l-220 -244q100 -8 165.5 -57.5t65.5 -139.5v-2q0 -61 -31 -109t-84.5 -75t-118.5 -27q-137 0 -228 88z" />
    <glyph glyph-name="four" unicode="4" horiz-adv-x="671" 
d="M63 166l-7 21q-5 15 -5 25q0 20 17 42l347 422q23 29 61 29h33v-473h58q53 0 53 -45q0 -9 -3 -21h-108v-166h-77v166h-369zM432 593l-294 -361h294v361z" />
    <glyph glyph-name="five" unicode="5" horiz-adv-x="612" 
d="M90 66q-20 16 -20 38q0 15 9.5 29t25.5 23q99 -96 199 -96q49 0 87.5 20.5t60 55.5t21.5 79v2q0 65 -48.5 106t-125.5 41q-72 0 -147 -40l-20 13q-34 22 -31 62l18 301h353q53 0 53 -48q0 -11 -3 -25h-334l-15 -224q35 15 66.5 23t71.5 8q68 0 123.5 -26t87 -74.5
t31.5 -113.5v-2q0 -68 -32 -120t-89 -81t-129 -29q-113 0 -213 78z" />
    <glyph glyph-name="six" unicode="6" horiz-adv-x="647" 
d="M230 6.5q-47 18.5 -81 52.5q-45 45 -66.5 107t-21.5 164v2q0 107 35 193.5t101 136.5t155 50q48 0 88.5 -12.5t78.5 -37.5q23 -16 23 -40q0 -14 -7.5 -27.5t-21.5 -23.5q-41 35 -80 52t-85 17q-65 0 -111.5 -41t-70.5 -109.5t-24 -149.5v-10q74 108 200 108
q65 0 120.5 -26.5t88.5 -75.5t33 -113v-2q0 -66 -33 -119.5t-90.5 -83.5t-127.5 -30q-56 0 -103 18.5zM422.5 79q38.5 21 59.5 57.5t21 81.5v2q0 43 -21.5 77t-60.5 53.5t-89 19.5q-51 0 -91 -21.5t-62 -57t-22 -74.5v-2q0 -44 23 -80t63 -56.5t91 -20.5q50 0 88.5 21z" />
    <glyph glyph-name="seven" unicode="7" horiz-adv-x="596" 
d="M68 628q-3 14 -3 25q0 47 53 47h425v-26q0 -33 -14 -62l-304 -612h-88l316 628h-385z" />
    <glyph glyph-name="eight" unicode="8" horiz-adv-x="630" 
d="M181 15q-60 25 -94.5 70.5t-34.5 102.5v2q0 60 39 104t105 68q-120 55 -120 161v2q0 53 32.5 95t87.5 66t119 24t119 -24t87.5 -66t32.5 -95v-2q0 -106 -120 -161q66 -25 105 -68t39 -103v-2q0 -58 -34.5 -103.5t-94.5 -70.5t-134 -25t-134 25zM429 426q46 36 46 92v2
q0 34 -21 61.5t-57.5 43.5t-81.5 16q-69 0 -114.5 -34.5t-45.5 -86.5v-2q0 -56 46 -92t114 -36t114 36zM412.5 76.5q41.5 17.5 63.5 47.5t22 66v2q0 38 -24.5 68.5t-66 47.5t-92.5 17t-92.5 -17t-66 -47.5t-24.5 -68.5v-2q0 -35 22 -65t63.5 -48t97.5 -18t97.5 17.5z" />
    <glyph glyph-name="nine" unicode="9" horiz-adv-x="647" 
d="M409 100.5q47 40.5 71.5 107.5t24.5 144v14q-72 -111 -198 -111q-71 0 -126.5 28t-86.5 77.5t-31 111.5v2q0 66 32 120.5t89.5 86t130.5 31.5q112 0 184 -72q42 -42 64.5 -106.5t22.5 -164.5v-2q0 -110 -36.5 -196t-103 -134.5t-151.5 -48.5q-93 0 -176 56q-27 19 -27 44
q0 13 8.5 25.5t24.5 21.5q44 -38 85 -56.5t87 -18.5q65 0 112 40.5zM407.5 345.5q39.5 22.5 61 58.5t21.5 77v2q0 44 -22.5 80.5t-63.5 57.5t-92 21t-89 -22.5t-58.5 -60t-20.5 -81.5v-2q0 -67 48 -110t124 -43q52 0 91.5 22.5z" />
    <glyph glyph-name="colon" unicode=":" horiz-adv-x="255" 
d="M94 504q12 13 34 13t34 -13t12 -37v-5q0 -24 -12 -37t-34 -13t-34 13t-12 37v5q0 24 12 37zM94 92q12 13 34 13t34 -13t12 -37v-5q0 -24 -12 -37t-34 -13t-34 13t-12 37v5q0 24 12 37z" />
    <glyph glyph-name="semicolon" unicode=";" horiz-adv-x="255" 
d="M94 504q12 13 34 13t34 -13t12 -37v-5q0 -24 -12 -37t-34 -13t-34 13t-12 37v5q0 24 12 37zM105 -52.5q16 20.5 13 52.5h-36v105h92v-90q0 -60 -26.5 -92t-84.5 -45l-12 35q38 14 54 34.5z" />
    <glyph glyph-name="less" unicode="&#x3c;" horiz-adv-x="625" 
d="M542 86l-469 233v66l469 233v-78l-385 -189l385 -188v-77z" />
    <glyph glyph-name="equal" unicode="=" horiz-adv-x="625" 
d="M545 506v-74h-465v74h465zM545 272v-74h-465v74h465z" />
    <glyph glyph-name="greater" unicode="&#x3e;" horiz-adv-x="625" 
d="M477 351l-385 189v78l469 -233v-66l-469 -233v77z" />
    <glyph glyph-name="question" unicode="?" horiz-adv-x="537" 
d="M210 365q96 2 147.5 39.5t51.5 101.5v2q0 55 -40 92.5t-106 37.5q-54 0 -98 -24t-84 -70q-38 22 -38 47q0 19 21 38q83 80 201 80q66 0 117 -25.5t79 -70.5t28 -102v-2q0 -89 -58 -139.5t-150 -63.5l-10 -108h-51l-15 162zM211 92q12 13 34 13t34 -13t12 -37v-5
q0 -24 -12 -37t-34 -13t-34 13t-12 37v5q0 24 12 37z" />
    <glyph glyph-name="at" unicode="@" horiz-adv-x="980" 
d="M272 -103q-102 59 -160.5 159t-58.5 218t58.5 218.5t159 160t220.5 59.5q119 0 219.5 -55t158.5 -146t58 -195q0 -81 -26.5 -136t-69.5 -82t-91 -27q-53 0 -89 22.5t-51 61.5q-33 -39 -73 -61.5t-92 -22.5q-49 0 -90 23t-65 64t-24 95q0 68 33.5 125.5t87 90.5t110.5 33
q54 0 89.5 -23.5t56.5 -59.5l13 69l67 -9l-40 -227q-7 -39 -7 -61q0 -38 22.5 -59.5t62.5 -21.5q37 0 69 22.5t51.5 69t19.5 114.5q0 92 -52.5 175.5t-144.5 135t-203 51.5q-113 0 -205 -54.5t-144.5 -147t-52.5 -202.5q0 -111 52.5 -203t146.5 -145.5t211 -53.5
q73 0 131 16.5t118 51.5l16 -27q-60 -37 -125 -56t-140 -19q-125 0 -227 59zM507.5 146q28.5 13 50.5 35q26 26 41 60.5t15 71.5q0 55 -34.5 91t-87.5 36q-30 0 -58.5 -13t-51.5 -36q-25 -26 -39.5 -60.5t-14.5 -72.5q0 -58 34 -91.5t88 -33.5q29 0 57.5 13z" />
    <glyph glyph-name="bracketleft" unicode="[" horiz-adv-x="439" 
d="M380 700v-60h-213v-710h213v-60h-286v830h286z" />
    <glyph glyph-name="backslash" unicode="\" horiz-adv-x="508" 
d="M65 798l464 -926h-71l-464 926h71z" />
    <glyph glyph-name="bracketright" unicode="]" horiz-adv-x="439" 
d="M273 -70v710h-214v60h287v-830h-287v60h214z" />
    <glyph glyph-name="asciicircum" unicode="^" horiz-adv-x="500" 
d="M280 702l155 -209h-68l-118 154l-118 -154h-66l155 209h60z" />
    <glyph glyph-name="underscore" unicode="_" horiz-adv-x="604" 
d="M0 -97h604v-63h-604v63z" />
    <glyph glyph-name="braceleft" unicode="{" horiz-adv-x="483" 
d="M281.5 -98q-47.5 27 -65 65t-17.5 94l1 76q0 61 -26.5 90.5t-91.5 29.5h-26v60h26q65 0 91.5 29.5t26.5 90.5l-1 76q0 56 17.5 94t65 65t134.5 43l12 -51q-70 -18 -102.5 -37.5t-43 -47t-10.5 -76.5l1 -75q0 -60 -26.5 -92.5t-77.5 -48.5q53 -17 78.5 -49t25.5 -92
l-1 -75q0 -49 10.5 -76.5t43 -47t102.5 -37.5l-12 -51q-87 16 -134.5 43z" />
    <glyph glyph-name="bar" unicode="|" horiz-adv-x="303" 
d="M184 798v-926h-65v926h65z" />
    <glyph glyph-name="braceright" unicode="}" horiz-adv-x="483" 
d="M56 -90q70 18 102.5 37.5t43 47t10.5 76.5l-1 75q0 60 25.5 92t78.5 49q-51 16 -77.5 48.5t-26.5 92.5l1 75q0 49 -10.5 76.5t-43 47t-102.5 37.5l12 51q87 -16 134.5 -43t65 -65t17.5 -94l-1 -76q0 -61 26.5 -90.5t91.5 -29.5h26v-60h-26q-65 0 -91.5 -29.5t-26.5 -90.5
l1 -76q0 -56 -17.5 -94t-65 -65t-134.5 -43z" />
    <glyph glyph-name="asciitilde" unicode="~" horiz-adv-x="474" 
d="M274 251.5q-16 5.5 -40 15.5q-17 8 -34 14t-28 6q-19 0 -29.5 -10.5t-22.5 -39.5l-47 13q15 57 37 81.5t58 24.5q16 0 32 -5.5t40 -15.5q44 -20 62 -20q19 0 29.5 11t22.5 39l46 -13q-15 -57 -36.5 -81.5t-57.5 -24.5q-16 0 -32 5.5z" />
    <glyph glyph-name="guillemotleft" unicode="&#xab;" horiz-adv-x="550" 
d="M48 263l165 212l56 -32l-133 -183l133 -186l-56 -32l-165 213v8zM271 263l165 212l55 -32l-132 -183l132 -186l-55 -32l-165 213v8z" />
    <glyph glyph-name="plusminus" unicode="&#xb1;" horiz-adv-x="625" 
d="M349 168h-73v196h-199v70h199v196h73v-196h200v-70h-200v-196zM77 69h472v-69h-472v69z" />
    <glyph glyph-name="guillemotright" unicode="&#xbb;" horiz-adv-x="550" 
d="M103 42l-55 32l132 186l-132 183l55 32l165 -212v-8zM326 42l-56 32l133 186l-133 183l56 32l165 -212v-8z" />
    <glyph glyph-name="multiply" unicode="&#xd7;" horiz-adv-x="625" 
d="M138 127l-50 50l176 174l-176 174l52 52l174 -177l174 177l50 -50l-177 -174l177 -174l-52 -52l-174 177z" />
    <glyph glyph-name="divide" unicode="&#xf7;" horiz-adv-x="625" 
d="M275 590q13 13 37 13h1q24 0 37 -13t13 -37v-4q0 -24 -13 -37t-37 -13h-1q-24 0 -37 13t-13 37v4q0 24 13 37zM68 387h489v-70h-489v70zM275 192q13 13 37 13h1q24 0 37 -13t13 -37v-3q0 -24 -13 -37t-37 -13h-1q-24 0 -37 13t-13 37v3q0 24 13 37z" />
    <glyph glyph-name="ring" unicode="&#x2da;" horiz-adv-x="500" 
d="M177 622.5q-31 29.5 -31 69.5v2q0 40 31 69.5t73 29.5t73 -29.5t31 -69.5v-2q0 -40 -31 -69.5t-73 -29.5t-73 29.5zM293.5 649q18.5 18 18.5 43v2q0 25 -18.5 43t-43.5 18t-43.5 -18t-18.5 -43v-2q0 -25 18.5 -43t43.5 -18t43.5 18z" />
    <glyph glyph-name="uni0326" unicode="&#x326;" 
d="M-267.5 -192.5q14.5 14.5 12.5 39.5h-40v83h90v-71q0 -47 -26 -72t-78 -30l-7 30q34 6 48.5 20.5z" />
    <glyph glyph-name="uni060C" unicode="&#x60c;" horiz-adv-x="217" 
d="M102 162.5q-16 -20.5 -13 -52.5h36v-105h-92v90q0 60 26.5 92t84.5 45l12 -35q-38 -14 -54 -34.5z" />
    <glyph glyph-name="uni061B" unicode="&#x61b;" horiz-adv-x="233" 
d="M124 541.5q-16 -20.5 -13 -52.5h36v-105h-92v90q0 60 26.5 92t84.5 45l12 -35q-38 -14 -54 -34.5zM135 -15q-12 -13 -34 -13t-34 13t-12 37v5q0 24 12 37t34 13t34 -13t12 -37v-5q0 -24 -12 -37z" />
    <glyph glyph-name="uni061F" unicode="&#x61f;" horiz-adv-x="514" 
d="M299 198h-51l-10 108q-92 13 -150 63.5t-58 139.5v2q0 57 28 102t79 70.5t117 25.5q118 0 201 -80q21 -19 21 -38q0 -25 -38 -47q-40 46 -84 70t-98 24q-66 0 -106 -37.5t-40 -92.5v-2q0 -64 51.5 -101.5t147.5 -39.5l5 -5zM320 50q0 -24 -12 -37t-34 -13t-34 13t-12 37
v5q0 24 12 37t34 13t34 -13t12 -37v-5z" />
    <glyph glyph-name="uni0621" unicode="&#x621;" horiz-adv-x="610" 
d="M542 95v-70q-138 1 -225 -15t-196 -66l-27 70q37 17 91 36q-56 26 -86.5 72.5t-30.5 111.5q0 64 30.5 115.5t84.5 80.5t121 29q50 0 109 -19q39 -15 39 -39q0 -21 -27 -49q-62 31 -121 31q-70 0 -114.5 -42t-44.5 -107q0 -55 26 -89t63.5 -48t74.5 -14h12q80 12 221 12z
" />
    <glyph glyph-name="uni0622" unicode="&#x622;" horiz-adv-x="257" 
d="M90 684q0 27 12 40t37 13q13 0 28 -3v-734h-77v684zM0 831q-16 0 -33 4v32q0 44 22 70.5t59 26.5q23 0 40.5 -8.5t30 -17.5t15.5 -12q20 -14 33 -20t30 -6q13 0 18.5 7.5t5.5 26.5v33q17 4 31 4q18 0 25.5 -8t7.5 -26v-3q0 -46 -23.5 -72.5t-64.5 -26.5q-29 0 -48.5 9.5
t-50.5 29.5l-17 11q-8 6 -15.5 10.5t-13.5 4.5q-20 0 -20 -33v-16q0 -20 -32 -20z" />
    <glyph glyph-name="uni0623" unicode="&#x623;" horiz-adv-x="259" 
d="M238 751h-217v59h28q-24 23 -24 62q0 44 33 70.5t81 26.5q28 0 51 -8q21 -7 21 -26q0 -18 -20 -40q-26 13 -50 13q-23 0 -37 -12t-14 -34q0 -23 17 -37.5t42 -14.5h89v-59zM103 654q12 13 37 13q13 0 28 -3v-664h-77v614q0 27 12 40z" />
    <glyph glyph-name="uni0624" unicode="&#x624;" horiz-adv-x="619" 
d="M436.5 491.5q54.5 -35.5 84.5 -98.5t30 -144v-173q-1 -161 -65.5 -243.5t-191.5 -82.5q-54 0 -108 11l1 72q56 -8 96 -8q103 0 148 58.5t45 194.5v27q-29 -49 -77.5 -77t-109.5 -28t-111.5 33t-80 90.5t-29.5 127.5q0 78 32 141t87.5 99t123.5 36q71 0 125.5 -35.5z
M394 98q38 24 60 64.5t22 88.5q0 59 -21 104t-59 70t-87 25q-46 0 -84 -25.5t-59.5 -71t-21.5 -101.5q0 -52 22 -92.5t60 -63t85 -22.5q45 0 83 24zM421 615h-217v59h28q-24 23 -24 62q0 44 33 70.5t81 26.5q28 0 51 -8q21 -7 21 -26q0 -18 -20 -40q-26 13 -50 13
q-23 0 -37 -12t-14 -34q0 -23 17 -37.5t42 -14.5h89v-59z" />
    <glyph glyph-name="uni0625" unicode="&#x625;" horiz-adv-x="259" 
d="M90 684q0 27 12 40t37 13q13 0 28 -3v-734h-77v684zM239 -318h-217v59h28q-24 23 -24 62q0 44 33 70.5t81 26.5q28 0 51 -8q21 -7 21 -26q0 -18 -20 -40q-26 13 -50 13q-23 0 -37 -12t-14 -34q0 -23 17 -37.5t42 -14.5h89v-59z" />
    <glyph glyph-name="uni0626" unicode="&#x626;" horiz-adv-x="883" 
d="M155 50q0 -224 271 -224h99q108 0 160.5 35t52.5 106q0 41 -20 65t-50 36.5t-85 26.5q-47 13 -72.5 21t-51.5 22q-58 31 -83 71.5t-25 102.5q0 63 35.5 112t98 76.5t142.5 27.5q74 0 149 -23q21 -6 30.5 -16t9.5 -26q0 -19 -13 -48q-97 40 -185 40q-86 0 -138 -39
t-52 -104q0 -41 15 -65t56 -42.5t128 -42.5q57 -16 96.5 -35.5t65.5 -58t26 -101.5q0 -105 -74 -159.5t-216 -54.5h-99q-157 0 -253 70t-96 218q0 43 11 103q5 25 17.5 36t37.5 11q14 0 32 -3q-20 -76 -20 -138zM286 325h-217v59h28q-24 23 -24 62q0 44 33 70.5t81 26.5
q28 0 51 -8q21 -7 21 -26q0 -18 -20 -40q-26 13 -50 13q-23 0 -37 -12t-14 -34q0 -23 17 -37.5t42 -14.5h89v-59z" />
    <glyph glyph-name="uni0627" unicode="&#x627;" horiz-adv-x="257" 
d="M90 684q0 27 12 40t37 13q13 0 28 -3v-734h-77v684z" />
    <glyph glyph-name="uni0628" unicode="&#x628;" horiz-adv-x="954" 
d="M216 33q-69 33 -105 94t-36 143q0 46 12 97q9 45 62 45q16 0 26 -2q-22 -70 -22 -132q0 -97 58.5 -150.5t169.5 -53.5h428v336q0 52 55 52q6 0 22 -2v-460h-505q-96 0 -165 33zM445 -169q-14 14 -14 33t14 32.5t33 13.5t32.5 -13.5t13.5 -32.5t-13.5 -33t-32.5 -14
t-33 14z" />
    <glyph glyph-name="uni0629" unicode="&#x629;" horiz-adv-x="626" 
d="M207 627q-14 14 -14 33t14 32.5t33 13.5t32.5 -13.5t13.5 -32.5t-13.5 -33t-32.5 -14t-33 14zM367 627q-14 14 -14 33t14 32.5t33 13.5t32.5 -13.5t13.5 -32.5t-13.5 -33t-32.5 -14t-33 14zM178.5 36.5q-55.5 36.5 -83 96t-27.5 127.5q0 69 28.5 130.5t84 99.5t133.5 38
q77 0 132.5 -37.5t83.5 -98t28 -129.5q0 -68 -28 -128.5t-84 -97.5t-134 -37t-133.5 36.5zM405.5 100q37.5 26 56.5 68t19 90q0 50 -19.5 94t-57.5 71.5t-92 27.5q-53 0 -91 -27t-57.5 -70.5t-19.5 -92.5t19.5 -91.5t58 -69t92.5 -26.5t91.5 26z" />
    <glyph glyph-name="uni062A" unicode="&#x62a;" horiz-adv-x="954" 
d="M216 33q-69 33 -105 94t-36 143q0 46 12 97q9 45 62 45q16 0 26 -2q-22 -70 -22 -132q0 -97 58.5 -150.5t169.5 -53.5h428v336q0 52 55 52q6 0 22 -2v-460h-505q-96 0 -165 33zM365 544q-14 14 -14 33t14 32.5t33 13.5t32.5 -13.5t13.5 -32.5t-13.5 -33t-32.5 -14t-33 14
zM525 544q-14 14 -14 33t14 32.5t33 13.5t32.5 -13.5t13.5 -32.5t-13.5 -33t-32.5 -14t-33 14z" />
    <glyph glyph-name="uni062B" unicode="&#x62b;" horiz-adv-x="954" 
d="M216 33q-69 33 -105 94t-36 143q0 46 12 97q9 45 62 45q16 0 26 -2q-22 -70 -22 -132q0 -97 58.5 -150.5t169.5 -53.5h428v336q0 52 55 52q6 0 22 -2v-460h-505q-96 0 -165 33zM451 679q-14 14 -14 33t14 32.5t33 13.5t32.5 -13.5t13.5 -32.5t-13.5 -33t-32.5 -14t-33 14
zM371 544q-14 14 -14 33t14 32.5t33 13.5t32.5 -13.5t13.5 -32.5t-13.5 -33t-32.5 -14t-33 14zM531 544q-14 14 -14 33t14 32.5t33 13.5t32.5 -13.5t13.5 -32.5t-13.5 -33t-32.5 -14t-33 14z" />
    <glyph glyph-name="uni062C" unicode="&#x62c;" horiz-adv-x="785" 
d="M717 74v-74h-363q-99 0 -144 -32.5t-45 -102.5t45.5 -103t143.5 -33h104v-73h-104q-130 0 -198 53.5t-68 155.5t68 155.5t198 53.5h226q-8 24 -19 86q-1 11 -5 31q-15 85 -40 135t-67 78q-36 24 -82.5 35.5t-94.5 11.5q-54 0 -98 -13q-9 26 -9 42q0 37 44 42q35 5 68 5
q59 0 116 -15t103 -46q53 -36 86 -100t50 -163q11 -59 18.5 -84t22 -35t43.5 -10h1zM375 -162q-14 14 -14 33t14 32.5t33 13.5t32.5 -13.5t13.5 -32.5t-13.5 -33t-32.5 -14t-33 14z" />
    <glyph glyph-name="uni062D" unicode="&#x62d;" horiz-adv-x="785" 
d="M717 74v-74h-363q-99 0 -144 -32.5t-45 -102.5t45.5 -103t143.5 -33h104v-73h-104q-130 0 -198 53.5t-68 155.5t68 155.5t198 53.5h226q-8 24 -19 86q-1 11 -5 31q-15 85 -40 135t-67 78q-36 24 -82.5 35.5t-94.5 11.5q-54 0 -98 -13q-9 26 -9 42q0 37 44 42q35 5 68 5
q59 0 116 -15t103 -46q53 -36 86 -100t50 -163q11 -59 18.5 -84t22 -35t43.5 -10h1z" />
    <glyph glyph-name="uni062E" unicode="&#x62e;" horiz-adv-x="785" 
d="M717 74v-74h-363q-99 0 -144 -32.5t-45 -102.5t45.5 -103t143.5 -33h104v-73h-104q-130 0 -198 53.5t-68 155.5t68 155.5t198 53.5h226q-8 24 -19 86q-1 11 -5 31q-15 85 -40 135t-67 78q-36 24 -82.5 35.5t-94.5 11.5q-54 0 -98 -13q-9 26 -9 42q0 37 44 42q35 5 68 5
q59 0 116 -15t103 -46q53 -36 86 -100t50 -163q11 -59 18.5 -84t22 -35t43.5 -10h1zM360 627q-14 14 -14 33t14 32.5t33 13.5t32.5 -13.5t13.5 -32.5t-13.5 -33t-32.5 -14t-33 14z" />
    <glyph glyph-name="uni062F" unicode="&#x62f;" horiz-adv-x="588" 
d="M68 74h375v141q0 114 -63 177t-175 63q-34 0 -71 -6q-8 21 -8 39q0 19 12 27.5t36 10.5q28 2 40 2q95 0 164.5 -38.5t105.5 -108.5t36 -163v-218h-452v74z" />
    <glyph glyph-name="uni0630" unicode="&#x630;" horiz-adv-x="588" 
d="M68 74h375v141q0 114 -63 177t-175 63q-34 0 -71 -6q-8 21 -8 39q0 19 12 27.5t36 10.5q28 2 40 2q95 0 164.5 -38.5t105.5 -108.5t36 -163v-218h-452v74zM262 627q-14 14 -14 33t14 32.5t33 13.5t32.5 -13.5t13.5 -32.5t-13.5 -33t-32.5 -14t-33 14z" />
    <glyph glyph-name="uni0631" unicode="&#x631;" horiz-adv-x="306" 
d="M79 -144q42 0 62 24.5t20 80.5v449q0 27 12 40t37 13q13 0 28 -3v-499q0 -90 -36 -134.5t-110 -44.5q-41 0 -92 13l16 69q38 -8 63 -8z" />
    <glyph glyph-name="uni0632" unicode="&#x632;" horiz-adv-x="311" 
d="M79 -144q42 0 62 24.5t20 80.5v449q0 27 12 40t37 13q13 0 28 -3v-499q0 -90 -36 -134.5t-110 -44.5q-41 0 -92 13l16 69q38 -8 63 -8zM164 577q-14 14 -14 33t14 32.5t33 13.5t32.5 -13.5t13.5 -32.5t-13.5 -33t-32.5 -14t-33 14z" />
    <glyph glyph-name="uni0633" unicode="&#x633;" horiz-adv-x="1417" 
d="M1327 530q6 0 22 -2v-528h-189q-61 0 -104.5 25t-66.5 73q-26 -47 -69 -72.5t-100 -25.5q-84 0 -132 53q-8 -151 -89.5 -225.5t-220.5 -74.5q-132 0 -221 69.5t-89 226.5q0 64 18 145q6 25 18 36t37 11q14 0 33 -3q-30 -104 -30 -183q0 -125 66.5 -177t167.5 -52
q234 0 234 259v362q0 52 55 52q6 0 22 -2v-258q0 -80 34.5 -122.5t96.5 -42.5q58 0 90 41.5t32 123.5v208q0 52 55 52q6 0 22 -2v-258q0 -81 36 -123t105 -42h112v404q0 52 55 52z" />
    <glyph glyph-name="uni0634" unicode="&#x634;" horiz-adv-x="1417" 
d="M1327 530q6 0 22 -2v-528h-189q-61 0 -104.5 25t-66.5 73q-26 -47 -69 -72.5t-100 -25.5q-84 0 -132 53q-8 -151 -89.5 -225.5t-220.5 -74.5q-132 0 -221 69.5t-89 226.5q0 64 18 145q6 25 18 36t37 11q14 0 33 -3q-30 -104 -30 -183q0 -125 66.5 -177t167.5 -52
q234 0 234 259v362q0 52 55 52q6 0 22 -2v-258q0 -80 34.5 -122.5t96.5 -42.5q58 0 90 41.5t32 123.5v208q0 52 55 52q6 0 22 -2v-258q0 -81 36 -123t105 -42h112v404q0 52 55 52zM886 633q-14 14 -14 33t14 32.5t33 13.5t32.5 -13.5t13.5 -32.5t-13.5 -33t-32.5 -14t-33 14
zM1146 633q-14 14 -14 33t14 32.5t33 13.5t32.5 -13.5t13.5 -32.5t-13.5 -33t-32.5 -14t-33 14zM1016 764q-14 14 -14 33t14 32.5t33 13.5t32.5 -13.5t13.5 -32.5t-13.5 -33t-32.5 -14t-33 14z" />
    <glyph glyph-name="uni0635" unicode="&#x635;" horiz-adv-x="1383" 
d="M1315 0h-632q-20 -124 -99.5 -185.5t-205.5 -61.5q-132 0 -221 69.5t-89 226.5q0 64 18 145q6 25 18 36t37 11q14 0 33 -3q-30 -104 -30 -183q0 -125 66.5 -177t167.5 -52q234 0 234 259v393q0 27 12 40t37 13q13 0 28 -3v-199q43 93 128 146t198 53q87 0 155.5 -37
t106.5 -103t38 -149v-239zM1238 239q0 96 -60 154t-163 58q-89 0 -163.5 -41t-118.5 -111.5t-44 -153.5v-71h549v165z" />
    <glyph glyph-name="uni0636" unicode="&#x636;" horiz-adv-x="1383" 
d="M1315 0h-632q-20 -124 -99.5 -185.5t-205.5 -61.5q-132 0 -221 69.5t-89 226.5q0 64 18 145q6 25 18 36t37 11q14 0 33 -3q-30 -104 -30 -183q0 -125 66.5 -177t167.5 -52q234 0 234 259v393q0 27 12 40t37 13q13 0 28 -3v-199q43 93 128 146t198 53q87 0 155.5 -37
t106.5 -103t38 -149v-239zM1238 239q0 96 -60 154t-163 58q-89 0 -163.5 -41t-118.5 -111.5t-44 -153.5v-71h549v165zM941 627q-14 14 -14 33t14 32.5t33 13.5t32.5 -13.5t13.5 -32.5t-13.5 -33t-32.5 -14t-33 14z" />
    <glyph glyph-name="uni0637" unicode="&#x637;" horiz-adv-x="968" 
d="M755.5 491q68.5 -37 106.5 -103t38 -149v-239h-832v74h131v610q0 27 12 40t37 13q12 0 27 -3l-1 -404q44 92 128.5 145t197.5 53q87 0 155.5 -37zM823 239q0 96 -60 154t-163 58q-87 0 -160.5 -39.5t-118 -107.5t-47.5 -149v-81h549v165z" />
    <glyph glyph-name="uni0638" unicode="&#x638;" horiz-adv-x="968" 
d="M755.5 491q68.5 -37 106.5 -103t38 -149v-239h-832v74h131v610q0 27 12 40t37 13q12 0 27 -3l-1 -404q44 92 128.5 145t197.5 53q87 0 155.5 -37zM823 239q0 96 -60 154t-163 58q-87 0 -160.5 -39.5t-118 -107.5t-47.5 -149v-81h549v165zM520 626q-14 14 -14 33t14 32.5
t33 13.5t32.5 -13.5t13.5 -32.5t-13.5 -33t-32.5 -14t-33 14z" />
    <glyph glyph-name="uni0639" unicode="&#x639;" horiz-adv-x="686" 
d="M190 -32q-45 -32 -45 -103q0 -70 45.5 -103t143.5 -33h104v-73h-104q-130 0 -198 53.5t-68 155.5q0 85 46.5 136t137.5 67q-104 50 -104 187q0 80 38 142.5t102 96.5t140 34q59 0 121 -22q37 -14 37 -40q0 -20 -19 -51q-43 18 -77 26.5t-69 8.5q-56 0 -101 -24t-70 -68.5
t-25 -102.5q0 -90 54 -135.5t148 -45.5h191v-74h-284q-99 0 -144 -32z" />
    <glyph glyph-name="uni063A" unicode="&#x63a;" horiz-adv-x="686" 
d="M190 -32q-45 -32 -45 -103q0 -70 45.5 -103t143.5 -33h104v-73h-104q-130 0 -198 53.5t-68 155.5q0 85 46.5 136t137.5 67q-104 50 -104 187q0 80 38 142.5t102 96.5t140 34q59 0 121 -22q37 -14 37 -40q0 -20 -19 -51q-43 18 -77 26.5t-69 8.5q-56 0 -101 -24t-70 -68.5
t-25 -102.5q0 -90 54 -135.5t148 -45.5h191v-74h-284q-99 0 -144 -32zM371 627q-14 14 -14 33t14 32.5t33 13.5t32.5 -13.5t13.5 -32.5t-13.5 -33t-32.5 -14t-33 14z" />
    <glyph glyph-name="uni0640" unicode="&#x640;" horiz-adv-x="200" 
d="M-31 64q12 10 31 10h200v-74h-200q-20 0 -31.5 10t-11.5 27t12 27z" />
    <glyph glyph-name="uni0641" unicode="&#x641;" horiz-adv-x="1121" 
d="M941.5 490.5q55.5 -37.5 83.5 -98t28 -129.5q0 -68 -28 -128.5t-84 -97.5t-134 -37h-427q-85 0 -154.5 28.5t-111 87.5t-41.5 148q0 50 13 103q6 24 19 35t38 11q14 0 32 -3q-23 -72 -23 -132q0 -103 64 -153.5t164 -50.5h250q-33 36 -50 85t-17 101q0 69 28.5 130.5
t84 99.5t133.5 38q77 0 132.5 -37.5zM900.5 100q37.5 26 56.5 68t19 90q0 50 -19.5 94t-57.5 71.5t-92 27.5q-53 0 -91 -27t-57.5 -70.5t-19.5 -92.5t19.5 -91.5t58 -69t92.5 -26.5t91.5 26zM775 627q-14 14 -14 33t14 32.5t33 13.5t32.5 -13.5t13.5 -32.5t-13.5 -33
t-32.5 -14t-33 14z" />
    <glyph glyph-name="uni0642" unicode="&#x642;" horiz-adv-x="888" 
d="M463 627q-14 14 -14 33t14 32.5t33 13.5t32.5 -13.5t13.5 -32.5t-13.5 -33t-32.5 -14t-33 14zM623 627q-14 14 -14 33t14 32.5t33 13.5t32.5 -13.5t13.5 -32.5t-13.5 -33t-32.5 -14t-33 14zM705.5 491.5q54.5 -35.5 84.5 -98.5t30 -144v-236q0 -310 -371 -310
q-171 0 -273.5 75.5t-102.5 234.5q0 41 7 80q4 25 16.5 36.5t37.5 11.5q13 0 31 -3q-14 -67 -14 -116q0 -129 78.5 -185.5t219.5 -56.5q105 0 170 23.5t95.5 74.5t30.5 135v92q-29 -49 -77.5 -77t-109.5 -28t-111.5 33t-80 90.5t-29.5 127.5q0 78 32 141t87.5 99t123.5 36
q71 0 125.5 -35.5zM688 117.5q47 43.5 57 106.5v27q0 59 -21 104t-59 70t-87 25q-46 0 -84 -25.5t-59.5 -71t-21.5 -101.5q0 -52 22 -92.5t60 -63t85 -22.5q61 0 108 43.5z" />
    <glyph glyph-name="uni0643" unicode="&#x643;" horiz-adv-x="954" 
d="M864 736q6 0 22 -2v-734h-506q-85 0 -154.5 28.5t-111 87.5t-41.5 148q0 50 13 103q11 45 63 45q16 0 26 -2q-23 -72 -23 -132q0 -103 64 -153.5t164 -50.5h429v610q0 52 55 52zM604 411h-250v71h32q-27 29 -27 75q0 52 38 84t93 32q30 0 59 -10q24 -8 24 -31
q0 -22 -23 -48q-31 16 -58 16q-26 0 -42 -14.5t-16 -40.5q0 -29 19.5 -46t48.5 -17h102v-71z" />
    <glyph glyph-name="uni0644" unicode="&#x644;" horiz-adv-x="758" 
d="M158 -177.5q-89 69.5 -89 226.5q0 64 18 145q5 21 19 33.5t42 12.5q17 0 27 -2q-30 -104 -30 -183q0 -125 66.5 -177t167.5 -52q234 0 234 259v599q0 52 55 52q6 0 22 -2v-649q0 -167 -82.5 -249.5t-228.5 -82.5q-132 0 -221 69.5z" />
    <glyph glyph-name="uni0645" unicode="&#x645;" horiz-adv-x="796" 
d="M610.5 492.5q55.5 -35.5 86.5 -97.5t31 -139q0 -79 -33.5 -137t-89 -89t-119.5 -31q-44 0 -87.5 15.5t-81.5 45.5v-53q-1 -122 -41.5 -188t-131.5 -66q-36 0 -76 10v73q31 -8 61 -8q62 0 87 44t25 135v239q0 82 30 146t85 100t128 36q71 0 126.5 -35.5zM564 94
q40 22 63.5 63.5t23.5 98.5q0 85 -45 140t-120 55q-79 0 -124 -56t-44 -149v-105q34 -34 75.5 -51.5t83.5 -17.5q47 0 87 22z" />
    <glyph glyph-name="uni0646" unicode="&#x646;" horiz-adv-x="758" 
d="M347 388q-14 14 -14 33t14 32.5t33 13.5t32.5 -13.5t13.5 -32.5t-13.5 -33t-32.5 -14t-33 14zM158 -177.5q-89 69.5 -89 226.5q0 64 18 145q5 21 19 33.5t42 12.5q17 0 27 -2q-30 -104 -30 -183q0 -125 66.5 -177t167.5 -52q234 0 234 259v275q0 52 55 52q6 0 22 -2v-325
q0 -167 -82.5 -249.5t-228.5 -82.5q-132 0 -221 69.5z" />
    <glyph glyph-name="uni0647" unicode="&#x647;" horiz-adv-x="626" 
d="M178.5 36.5q-55.5 36.5 -83 96t-27.5 127.5q0 69 28.5 130.5t84 99.5t133.5 38q77 0 132.5 -37.5t83.5 -98t28 -129.5q0 -68 -28 -128.5t-84 -97.5t-134 -37t-133.5 36.5zM405.5 100q37.5 26 56.5 68t19 90q0 50 -19.5 94t-57.5 71.5t-92 27.5q-53 0 -91 -27t-57.5 -70.5
t-19.5 -92.5t19.5 -91.5t58 -69t92.5 -26.5t91.5 26z" />
    <glyph glyph-name="uni0648" unicode="&#x648;" horiz-adv-x="619" 
d="M436.5 491.5q54.5 -35.5 84.5 -98.5t30 -144v-173q-1 -161 -65.5 -243.5t-191.5 -82.5q-54 0 -108 11l1 72q56 -8 96 -8q103 0 148 58.5t45 194.5v27q-29 -49 -77.5 -77t-109.5 -28t-111.5 33t-80 90.5t-29.5 127.5q0 78 32 141t87.5 99t123.5 36q71 0 125.5 -35.5z
M394 98q38 24 60 64.5t22 88.5q0 59 -21 104t-59 70t-87 25q-46 0 -84 -25.5t-59.5 -71t-21.5 -101.5q0 -52 22 -92.5t60 -63t85 -22.5q45 0 83 24z" />
    <glyph glyph-name="uni0649" unicode="&#x649;" horiz-adv-x="890" 
d="M155 50q0 -224 271 -224h99q108 0 160.5 35t52.5 106q0 41 -20 65t-50 36.5t-85 26.5q-47 13 -72.5 21t-51.5 22q-58 31 -83 71.5t-25 102.5q0 63 35.5 112t98 76.5t142.5 27.5q74 0 149 -23q21 -6 30.5 -16t9.5 -26q0 -19 -13 -48q-97 40 -185 40q-86 0 -138 -39
t-52 -104q0 -41 15 -65t56 -42.5t128 -42.5q57 -16 96.5 -35.5t65.5 -58t26 -101.5q0 -105 -74 -159.5t-216 -54.5h-99q-157 0 -253 70t-96 218q0 43 11 103q5 25 17.5 36t37.5 11q14 0 32 -3q-20 -76 -20 -138z" />
    <glyph glyph-name="uni064A" unicode="&#x64a;" horiz-adv-x="890" 
d="M155 50q0 -224 271 -224h99q108 0 160.5 35t52.5 106q0 41 -20 65t-50 36.5t-85 26.5q-47 13 -72.5 21t-51.5 22q-58 31 -83 71.5t-25 102.5q0 63 35.5 112t98 76.5t142.5 27.5q74 0 149 -23q21 -6 30.5 -16t9.5 -26q0 -19 -13 -48q-97 40 -185 40q-86 0 -138 -39
t-52 -104q0 -41 15 -65t56 -42.5t128 -42.5q57 -16 96.5 -35.5t65.5 -58t26 -101.5q0 -105 -74 -159.5t-216 -54.5h-99q-157 0 -253 70t-96 218q0 43 11 103q5 25 17.5 36t37.5 11q14 0 32 -3q-20 -76 -20 -138zM329 -414q-14 14 -14 33t14 32.5t33 13.5t32.5 -13.5
t13.5 -32.5t-13.5 -33t-32.5 -14t-33 14zM489 -414q-14 14 -14 33t14 32.5t33 13.5t32.5 -13.5t13.5 -32.5t-13.5 -33t-32.5 -14t-33 14z" />
    <glyph glyph-name="uni064B" unicode="&#x64b;" 
d="M-14 87q0 17 7.5 24.5t23.5 9.5l272 46q4 -20 4 -26q0 -15 -7.5 -22.5t-23.5 -9.5l-273 -48q-3 15 -3 26zM-14 -13q0 17 7.5 24.5t23.5 9.5l272 46q4 -20 4 -25q0 -15 -7.5 -22.5t-23.5 -10.5l-273 -48q-3 15 -3 26z" />
    <glyph glyph-name="uni064C" unicode="&#x64c;" 
d="M330 97q0 -35 -22.5 -62t-57.5 -33l-95 -16q-13 -3 -27 -3q-36 0 -59 21t-30 61l-48 -9q-9 21 -9 32q0 10 7 15.5t22 8.5l76 14q-3 -89 49 -89q6 0 10 1l10 2q-13 16 -18 43q-1 5 -1 16q0 40 27.5 69t69.5 29q35 0 62 -23t32 -57v1q2 -7 2 -21zM265.5 67.5
q12.5 13.5 12.5 32.5q0 18 -14 30.5t-32 12.5q-20 0 -32 -16t-10 -35q3 -16 15.5 -27t28.5 -11q19 0 31.5 13.5z" />
    <glyph glyph-name="uni064D" unicode="&#x64d;" 
d="M-14 -43q0 16 7.5 24t23.5 10l272 46q4 -20 4 -25q0 -15 -7.5 -22.5t-23.5 -10.5l-273 -48q-3 15 -3 26zM-14 -143q0 16 7.5 24t23.5 10l272 46q4 -20 4 -25q0 -15 -7.5 -22.5t-23.5 -10.5l-273 -48q-3 15 -3 26z" />
    <glyph glyph-name="uni064E" unicode="&#x64e;" 
d="M-14 -13q0 17 7.5 24.5t23.5 9.5l272 46q4 -20 4 -25q0 -15 -7.5 -22.5t-23.5 -10.5l-273 -48q-3 15 -3 26z" />
    <glyph glyph-name="uni064F" unicode="&#x64f;" 
d="M260 164.5q29 -27.5 29 -68.5q0 -36 -22.5 -63.5t-57.5 -33.5l-202 -36q-9 21 -9 33q0 11 7 16t22 8l88 16q-21 26 -21 61q0 39 28.5 67t69.5 28q39 0 68 -27.5zM223.5 63.5q12.5 13.5 12.5 32.5q0 20 -16 33t-36 10q-17 -4 -27.5 -18.5t-7.5 -31.5t15 -28t28 -11
q19 0 31.5 13.5z" />
    <glyph glyph-name="uni0650" unicode="&#x650;" 
d="M-14 -43q0 16 7.5 24t23.5 10l272 46q4 -20 4 -25q0 -15 -7.5 -22.5t-23.5 -10.5l-273 -48q-3 15 -3 26z" />
    <glyph glyph-name="uni0651" unicode="&#x651;" 
d="M271 151q8 0 20 -3v-69q0 -39 -26 -65.5t-64 -26.5q-36 0 -62 26q-24 -26 -62 -26q-39 0 -64.5 26t-25.5 66v40q0 33 34 33q9 0 21 -3v-70q0 -17 9.5 -27t25.5 -10t26 10.5t10 26.5v40q0 33 34 33q8 0 20 -3v-70q0 -17 9 -27t25 -10q17 0 26.5 10t9.5 27v39q0 33 34 33z
" />
    <glyph glyph-name="uni0652" unicode="&#x652;" 
d="M15.5 16q-28.5 29 -28.5 70t29 69.5t69 28.5t69 -29t29 -69q0 -41 -28.5 -70t-69.5 -29t-69.5 29zM116 54.5q13 12.5 13 31.5q0 18 -13 31t-31 13t-30 -13t-12 -31q0 -19 12 -31.5t30 -12.5t31 12.5z" />
    <glyph glyph-name="uni0653" unicode="&#x653;" 
d="M20 -4q-16 0 -33 4v32q0 44 22 70.5t59 26.5q23 0 40.5 -8.5t30 -17.5t15.5 -12q20 -14 33 -20t30 -6q13 0 18.5 7.5t5.5 26.5v33q17 4 31 4q18 0 25.5 -8t7.5 -26v-3q0 -46 -23.5 -72.5t-64.5 -26.5q-29 0 -48.5 9.5t-50.5 29.5l-17 11q-8 6 -15.5 10.5t-13.5 4.5
q-20 0 -20 -33v-16q0 -20 -32 -20z" />
    <glyph glyph-name="uni0654" unicode="&#x654;" 
d="M206 -3h-217v59h28q-24 23 -24 62q0 44 33 70.5t81 26.5q28 0 51 -8q21 -7 21 -26q0 -18 -20 -40q-26 13 -50 13q-23 0 -37 -12t-14 -34q0 -23 17 -37.5t42 -14.5h89v-59z" />
    <glyph glyph-name="uni0655" unicode="&#x655;" 
d="M206 -205h-217v59h28q-24 23 -24 62q0 44 33 70.5t81 26.5q28 0 51 -8q21 -7 21 -26q0 -18 -20 -40q-26 13 -50 13q-23 0 -37 -12t-14 -34q0 -23 17 -37.5t42 -14.5h89v-59z" />
    <glyph glyph-name="uni0660" unicode="&#x660;" horiz-adv-x="235" 
d="M75.5 284q15.5 16 42.5 16t42 -16t15 -46v-6q0 -30 -15 -46.5t-42 -16.5t-42.5 16.5t-15.5 46.5v6q0 30 15.5 46z" />
    <glyph glyph-name="uni0661" unicode="&#x661;" horiz-adv-x="197" 
d="M60 734q15 3 27 3q27 0 38.5 -13t11.5 -40v-684h-77v734z" />
    <glyph glyph-name="uni0662" unicode="&#x662;" horiz-adv-x="640" 
d="M558 736q6 0 22 -2v-107q0 -79 -32.5 -137.5t-90.5 -90t-133 -31.5q-61 0 -107 21.5t-74 62.5l14 -452h-77l-20 683q-1 23 12 38t42 15q5 0 21 -2l3 -88l1 -40v-16q4 -70 51.5 -108.5t121.5 -38.5q85 0 138 49t53 135v57q0 52 55 52z" />
    <glyph glyph-name="uni0663" unicode="&#x663;" horiz-adv-x="798" 
d="M673 724q12 13 37 13q13 0 28 -3v-130q0 -116 -46 -177t-123 -61q-117 0 -146 123q-19 -61 -59 -92t-95 -31q-84 0 -125 59l12 -425h-77l-19 683q-1 54 49 54q11 0 26 -3l5 -172q7 -64 34.5 -93.5t77.5 -29.5q58 0 83.5 37.5t25.5 127.5v80q0 27 12 40t37 13q13 0 28 -3
v-130q0 -86 27.5 -125.5t83.5 -39.5q59 0 85.5 37.5t26.5 127.5v80q0 27 12 40z" />
    <glyph glyph-name="uni0664" unicode="&#x664;" horiz-adv-x="575" 
d="M502 65q13 -12 13 -37q0 -13 -3 -28h-219q-75 0 -127.5 30.5t-79 80t-26.5 105.5q0 65 36 119.5t102 77.5q-51 22 -78.5 63t-27.5 88q0 44 24.5 83t72.5 63t115 24h123q27 0 40 -12t13 -37q0 -12 -3 -27l-173 -1q-64 0 -99.5 -33.5t-35.5 -79.5q0 -30 16 -57t48 -43.5
t76 -16.5h118q27 0 40 -12t13 -37q0 -13 -3 -28h-190q-48 0 -82.5 -19t-51.5 -49.5t-17 -65.5q0 -36 18 -67.5t53.5 -51.5t84.5 -20h170q27 0 40 -12z" />
    <glyph glyph-name="uni0665" unicode="&#x665;" horiz-adv-x="608" 
d="M91 497q31 91 86 139t127 48q71 0 126.5 -47.5t86.5 -138.5t31 -215q0 -135 -64 -209t-182 -74q-117 0 -179.5 73t-62.5 208q0 125 31 216zM449 457.5q-22 73.5 -59.5 111.5t-85.5 38t-86 -38t-59.5 -112t-21.5 -176q0 -103 41 -153t125 -50q168 0 168 205
q0 101 -22 174.5z" />
    <glyph glyph-name="uni0666" unicode="&#x666;" horiz-adv-x="602" 
d="M466 0l-31 657h-372q-3 15 -3 27q0 27 13 38.5t40 11.5h345q48 0 51 -49l33 -685h-76z" />
    <glyph glyph-name="uni0667" unicode="&#x667;" horiz-adv-x="659" 
d="M557 736q21 0 31.5 -9t10.5 -26q0 -12 -4 -24l-223 -677h-45q-43 0 -56 41l-207 636q-4 11 -4 23q0 17 11 26.5t31 9.5q14 0 22 -2l205 -623l206 623q8 2 22 2z" />
    <glyph glyph-name="uni0668" unicode="&#x668;" horiz-adv-x="644" 
d="M599 34q0 -17 -11 -26.5t-31 -9.5q-14 0 -22 2l-205 623l-206 -623q-8 -2 -22 -2q-21 0 -31.5 9t-10.5 26q0 12 4 24l223 677h45q43 0 56 -41l207 -636q4 -11 4 -23z" />
    <glyph glyph-name="uni0669" unicode="&#x669;" horiz-adv-x="638" 
d="M502 0l-15 363q-27 -49 -77 -76t-116 -27q-75 0 -128 32.5t-79.5 85t-26.5 112.5q0 63 28.5 119t85 90.5t136.5 34.5q69 0 124 -30t87 -83.5t35 -123.5l22 -497h-76zM432.5 377q48.5 44 48.5 114q0 73 -48.5 119.5t-124.5 46.5q-55 0 -94 -23t-59 -60.5t-20 -79.5
t19.5 -79t59 -59.5t95.5 -22.5q75 0 123.5 44z" />
    <glyph glyph-name="uni066A" unicode="&#x66a;" horiz-adv-x="585" 
d="M104 718q12 13 34 13t34 -13t12 -37v-5q0 -24 -12 -37t-34 -13t-34 13t-12 37v5q0 24 12 37zM585 700l-270 -367l-243 -333h-72l270 365l244 335h71zM424 92q12 13 34 13t34 -13t12 -37v-5q0 -24 -12 -37t-34 -13t-34 13t-12 37v5q0 24 12 37z" />
    <glyph glyph-name="uni066B" unicode="&#x66b;" horiz-adv-x="261" 
d="M123 -28.5q16 20.5 13 52.5h-36v105h92v-90q0 -60 -26.5 -92t-84.5 -45l-12 35q38 14 54 34.5z" />
    <glyph glyph-name="uni066C" unicode="&#x66c;" horiz-adv-x="236" 
d="M112 -20q13 17 10 42h-28v84h73v-72q0 -48 -21.5 -73.5t-67.5 -36.5l-9 28q30 11 43 28z" />
    <glyph glyph-name="uni066D" unicode="&#x66d;" horiz-adv-x="430" 
d="M96 449l-27 47l116 53l-116 54l27 46l103 -72l-10 125h52l-10 -125l103 72l27 -46l-116 -54l116 -53l-27 -47l-103 73l10 -125h-52l10 125z" />
    <glyph glyph-name="uni066E" unicode="&#x66e;" horiz-adv-x="954" 
d="M216 33q-69 33 -105 94t-36 143q0 46 12 97q9 45 62 45q16 0 26 -2q-22 -70 -22 -132q0 -97 58.5 -150.5t169.5 -53.5h428v336q0 52 55 52q6 0 22 -2v-460h-505q-96 0 -165 33z" />
    <glyph glyph-name="uni067E" unicode="&#x67e;" horiz-adv-x="954" 
d="M216 33q-69 33 -105 94t-36 143q0 46 12 97q9 45 62 45q16 0 26 -2q-22 -70 -22 -132q0 -97 58.5 -150.5t169.5 -53.5h428v336q0 52 55 52q6 0 22 -2v-460h-505q-96 0 -165 33zM430.5 -104q13.5 -14 13.5 -33t-13.5 -32.5t-32.5 -13.5t-33 13.5t-14 32.5t14 33t33 14
t32.5 -14zM590.5 -104q13.5 -14 13.5 -33t-13.5 -32.5t-32.5 -13.5t-33 13.5t-14 32.5t14 33t33 14t32.5 -14zM510.5 -239q13.5 -14 13.5 -33t-13.5 -32.5t-32.5 -13.5t-33 13.5t-14 32.5t14 33t33 14t32.5 -14z" />
    <glyph glyph-name="uni0686" unicode="&#x686;" horiz-adv-x="785" 
d="M717 74v-74h-363q-99 0 -144 -32.5t-45 -102.5t45.5 -103t143.5 -33h104v-73h-104q-130 0 -198 53.5t-68 155.5t68 155.5t198 53.5h226q-8 24 -19 86q-1 11 -5 31q-15 85 -40 135t-67 78q-36 24 -82.5 35.5t-94.5 11.5q-54 0 -98 -13q-9 26 -9 42q0 37 44 42q35 5 68 5
q59 0 116 -15t103 -46q53 -36 86 -100t50 -163q11 -59 18.5 -84t22 -35t43.5 -10h1zM396 -54q11 -11 11 -27q0 -15 -11 -26t-26 -11q-16 0 -26.5 11t-10.5 26q0 16 10.5 27t26.5 11q15 0 26 -11zM524 -54q11 -11 11 -27q0 -15 -11 -26t-26 -11q-16 0 -26.5 11t-10.5 26
q0 16 10.5 27t26.5 11q15 0 26 -11zM460 -162q11 -11 11 -27q0 -15 -11 -26t-26 -11q-16 0 -26.5 11t-10.5 26q0 16 10.5 27t26.5 11q15 0 26 -11z" />
    <glyph glyph-name="uni06A1" unicode="&#x6a1;" horiz-adv-x="1121" 
d="M941.5 490.5q55.5 -37.5 83.5 -98t28 -129.5q0 -68 -28 -128.5t-84 -97.5t-134 -37h-427q-85 0 -154.5 28.5t-111 87.5t-41.5 148q0 50 13 103q6 24 19 35t38 11q14 0 32 -3q-23 -72 -23 -132q0 -103 64 -153.5t164 -50.5h250q-33 36 -50 85t-17 101q0 69 28.5 130.5
t84 99.5t133.5 38q77 0 132.5 -37.5zM900.5 100q37.5 26 56.5 68t19 90q0 50 -19.5 94t-57.5 71.5t-92 27.5q-53 0 -91 -27t-57.5 -70.5t-19.5 -92.5t19.5 -91.5t58 -69t92.5 -26.5t91.5 26z" />
    <glyph glyph-name="uni06A4" unicode="&#x6a4;" horiz-adv-x="1121" 
d="M941.5 490.5q55.5 -37.5 83.5 -98t28 -129.5q0 -68 -28 -128.5t-84 -97.5t-134 -37h-427q-85 0 -154.5 28.5t-111 87.5t-41.5 148q0 50 13 103q6 24 19 35t38 11q14 0 32 -3q-23 -72 -23 -132q0 -103 64 -153.5t164 -50.5h250q-33 36 -50 85t-17 101q0 69 28.5 130.5
t84 99.5t133.5 38q77 0 132.5 -37.5zM900.5 100q37.5 26 56.5 68t19 90q0 50 -19.5 94t-57.5 71.5t-92 27.5q-53 0 -91 -27t-57.5 -70.5t-19.5 -92.5t19.5 -91.5t58 -69t92.5 -26.5t91.5 26zM774 762q-14 14 -14 33t14 32.5t33 13.5t32.5 -13.5t13.5 -32.5t-13.5 -33
t-32.5 -14t-33 14zM694 627q-14 14 -14 33t14 32.5t33 13.5t32.5 -13.5t13.5 -32.5t-13.5 -33t-32.5 -14t-33 14zM854 627q-14 14 -14 33t14 32.5t33 13.5t32.5 -13.5t13.5 -32.5t-13.5 -33t-32.5 -14t-33 14z" />
    <glyph glyph-name="endash" unicode="&#x2013;" horiz-adv-x="528" 
d="M463 339v-77h-398v77h398z" />
    <glyph glyph-name="quoteleft" unicode="&#x2018;" horiz-adv-x="245" 
d="M98 660q26 32 84 45l12 -35q-37 -13 -53 -34t-14 -53h37v-105h-92v90q0 60 26 92z" />
    <glyph glyph-name="quoteright" unicode="&#x2019;" horiz-adv-x="245" 
d="M105 542.5q16 20.5 13 52.5h-36v105h92v-90q0 -60 -26.5 -92t-84.5 -45l-12 35q38 14 54 34.5z" />
    <glyph glyph-name="quotesinglbase" unicode="&#x201a;" horiz-adv-x="245" 
d="M100 -52.5q16 20.5 13 52.5h-36v105h92v-90q0 -60 -26.5 -92t-84.5 -45l-12 35q38 14 54 34.5z" />
    <glyph glyph-name="quotedblleft" unicode="&#x201c;" horiz-adv-x="445" 
d="M98 660q26 32 84 45l12 -35q-37 -13 -53 -34t-14 -53h37v-105h-92v90q0 60 26 92zM298 660q26 32 84 45l12 -35q-37 -13 -53 -34t-14 -53h37v-105h-92v90q0 60 26 92z" />
    <glyph glyph-name="quotedblright" unicode="&#x201d;" horiz-adv-x="445" 
d="M105 542.5q16 20.5 13 52.5h-36v105h92v-90q0 -60 -26.5 -92t-84.5 -45l-12 35q38 14 54 34.5zM305 542.5q16 20.5 13 52.5h-36v105h92v-90q0 -60 -26.5 -92t-84.5 -45l-12 35q38 14 54 34.5z" />
    <glyph glyph-name="quotedblbase" unicode="&#x201e;" horiz-adv-x="445" 
d="M100 -52.5q16 20.5 13 52.5h-36v105h92v-90q0 -60 -26.5 -92t-84.5 -45l-12 35q38 14 54 34.5zM300 -52.5q16 20.5 13 52.5h-36v105h92v-90q0 -60 -26.5 -92t-84.5 -45l-12 35q38 14 54 34.5z" />
    <glyph glyph-name="guilsinglleft" unicode="&#x2039;" horiz-adv-x="328" 
d="M48 263l165 212l56 -32l-133 -183l133 -186l-56 -32l-165 213v8z" />
    <glyph glyph-name="guilsinglright" unicode="&#x203a;" horiz-adv-x="328" 
d="M104 42l-56 32l133 186l-133 183l56 32l165 -212v-8z" />
    <glyph glyph-name="fraction" unicode="&#x2044;" horiz-adv-x="530" 
d="M476 700h54l-248 -359l-228 -341h-54l248 359z" />
    <glyph glyph-name="minus" unicode="&#x2212;" horiz-adv-x="625" 
d="M68 389h489v-74h-489v74z" />
    <glyph glyph-name="dotabove-ar" unicode="&#xfbb2;" 
d="M1 9q-14 14 -14 33t14 32.5t33 13.5t32.5 -13.5t13.5 -32.5t-13.5 -33t-32.5 -14t-33 14z" />
    <glyph glyph-name="dotbelow-ar" unicode="&#xfbb3;" 
d="M1 -68q-14 14 -14 33t14 32.5t33 13.5t32.5 -13.5t13.5 -32.5t-13.5 -33t-32.5 -14t-33 14z" />
    <glyph glyph-name="twodotshorizontalabove-ar" unicode="&#xfbb4;" 
d="M1 9q-14 14 -14 33t14 32.5t33 13.5t32.5 -13.5t13.5 -32.5t-13.5 -33t-32.5 -14t-33 14zM161 9q-14 14 -14 33t14 32.5t33 13.5t32.5 -13.5t13.5 -32.5t-13.5 -33t-32.5 -14t-33 14z" />
    <glyph glyph-name="twodotshorizontalbelow-ar" unicode="&#xfbb5;" 
d="M1 -69q-14 14 -14 33t14 32.5t33 13.5t32.5 -13.5t13.5 -32.5t-13.5 -33t-32.5 -14t-33 14zM161 -69q-14 14 -14 33t14 32.5t33 13.5t32.5 -13.5t13.5 -32.5t-13.5 -33t-32.5 -14t-33 14z" />
    <glyph glyph-name="threedotsupabove-ar" unicode="&#xfbb6;" 
d="M81 164q-14 14 -14 33t14 32.5t33 13.5t32.5 -13.5t13.5 -32.5t-13.5 -33t-32.5 -14t-33 14zM1 29q-14 14 -14 33t14 32.5t33 13.5t32.5 -13.5t13.5 -32.5t-13.5 -33t-32.5 -14t-33 14zM161 29q-14 14 -14 33t14 32.5t33 13.5t32.5 -13.5t13.5 -32.5t-13.5 -33t-32.5 -14
t-33 14z" />
    <glyph glyph-name="threedotsupbelow-ar" unicode="&#xfbb7;" 
d="M81 17q-14 14 -14 33t14 32.5t33 13.5t32.5 -13.5t13.5 -32.5t-13.5 -33t-32.5 -14t-33 14zM1 -118q-14 14 -14 33t14 32.5t33 13.5t32.5 -13.5t13.5 -32.5t-13.5 -33t-32.5 -14t-33 14zM161 -118q-14 14 -14 33t14 32.5t33 13.5t32.5 -13.5t13.5 -32.5t-13.5 -33
t-32.5 -14t-33 14z" />
    <glyph glyph-name="threedotsdownabove-ar" unicode="&#xfbb8;" 
d="M66.5 164q13.5 -14 13.5 -33t-13.5 -32.5t-32.5 -13.5t-33 13.5t-14 32.5q0 20 14 33.5t33 13.5t32.5 -14zM226.5 164q13.5 -14 13.5 -33t-13.5 -32.5t-32.5 -13.5t-33 13.5t-14 32.5q0 20 14 33.5t33 13.5t32.5 -14zM146.5 29q13.5 -14 13.5 -33t-13.5 -32.5
t-32.5 -13.5t-33 13.5t-14 32.5q0 20 14 33.5t33 13.5t32.5 -14z" />
    <glyph glyph-name="threedotsdownbelow-ar" unicode="&#xfbb9;" 
d="M66.5 -2q13.5 -14 13.5 -33t-13.5 -32.5t-32.5 -13.5t-33 13.5t-14 32.5t14 33t33 14t32.5 -14zM226.5 -2q13.5 -14 13.5 -33t-13.5 -32.5t-32.5 -13.5t-33 13.5t-14 32.5t14 33t33 14t32.5 -14zM146.5 -137q13.5 -14 13.5 -33t-13.5 -32.5t-32.5 -13.5t-33 13.5
t-14 32.5t14 33t33 14t32.5 -14z" />
    <glyph glyph-name="uniFD3E" unicode="&#xfd3e;" horiz-adv-x="447" 
d="M139 43q-71 108 -71 244t71 244t206 184l33 -51q-116 -74 -174 -166.5t-58 -210.5t58 -210.5t174 -166.5l-33 -51q-135 76 -206 184z" />
    <glyph glyph-name="uniFD3F" unicode="&#xfd3f;" horiz-adv-x="447" 
d="M243 76.5q58 92.5 58 210.5t-58 210.5t-174 166.5l33 51q135 -76 206 -184t71 -244t-71 -244t-206 -184l-33 51q116 74 174 166.5z" />
    <glyph glyph-name="uni0651064F" 
d="M7 168q-9 21 -9 33q0 11 7 16t22 8l88 16q-15 21 -19 44q-2 12 -2 18q0 38 28.5 66t69.5 28q39 0 68 -27.5t29 -68.5q0 -36 -22.5 -63.5t-57.5 -33.5zM156.5 325.5q-10.5 -14.5 -7.5 -31.5t15 -28t28 -11q19 0 31.5 13.5t12.5 32.5q0 20 -16 33t-36 10
q-17 -4 -27.5 -18.5zM271 151q8 0 20 -3v-69q0 -39 -26 -65.5t-64 -26.5q-36 0 -62 26q-24 -26 -62 -26q-39 0 -64.5 26t-25.5 66v40q0 33 34 33q9 0 21 -3v-70q0 -17 9.5 -27t25.5 -10t26 10.5t10 26.5v40q0 33 34 33q8 0 20 -3v-70q0 -17 9 -27t25 -10q17 0 26.5 10
t9.5 27v39q0 33 34 33z" />
    <glyph glyph-name="uni0651064C" 
d="M69 209.5q-23 20.5 -30 60.5l-48 -9q-9 21 -9 32q0 10 7 15.5t22 8.5l76 14q-3 -89 49 -89q6 0 10 1l10 2q-13 16 -18 43q-2 12 -2 17q0 39 28.5 68t69.5 29q35 0 62 -22.5t32 -56.5q2 -7 2 -21q0 -35 -22.5 -62t-57.5 -33l-95 -16q-9 -2 -26 -2q-37 0 -60 20.5z
M200.5 332q-12.5 -16 -10.5 -35q3 -16 15.5 -27t28.5 -11q18 0 31 13.5t13 31.5q0 17 -13.5 30.5t-31.5 13.5q-20 0 -32.5 -16zM292 151q8 0 20 -3v-69q0 -39 -26 -65.5t-64 -26.5q-36 0 -62 26q-24 -26 -62 -26q-39 0 -64.5 26t-25.5 66v40q0 33 34 33q9 0 21 -3v-70
q0 -17 9.5 -27t25.5 -10t26 10.5t10 26.5v40q0 33 34 33q8 0 20 -3v-70q0 -17 9 -27t25 -10q17 0 26.5 10t9.5 27v39q0 33 34 33z" />
    <glyph glyph-name="uni0651064E" 
d="M-11 166q-3 15 -3 26q0 17 7.5 24.5t23.5 9.5l272 46q4 -20 4 -25q0 -15 -7.5 -22.5t-23.5 -10.5zM271 151q8 0 20 -3v-69q0 -39 -26 -65.5t-64 -26.5q-36 0 -62 26q-24 -26 -62 -26q-39 0 -64.5 26t-25.5 66v40q0 33 34 33q9 0 21 -3v-70q0 -17 9.5 -27t25.5 -10
t26 10.5t10 26.5v40q0 33 34 33q8 0 20 -3v-70q0 -17 9 -27t25 -10q17 0 26.5 10t9.5 27v39q0 33 34 33z" />
    <glyph glyph-name="uni0651064B.1" 
d="M-11 266q-3 15 -3 26q0 17 7.5 24.5t23.5 9.5l272 46q4 -20 4 -25q0 -15 -7.5 -22.5t-23.5 -10.5zM289 272q4 -20 4 -25q0 -15 -7.5 -22.5t-23.5 -10.5l-273 -48q-3 15 -3 26q0 17 7.5 24.5t23.5 9.5zM271 151q8 0 20 -3v-69q0 -39 -26 -65.5t-64 -26.5q-36 0 -62 26
q-24 -26 -62 -26q-39 0 -64.5 26t-25.5 66v40q0 33 34 33q9 0 21 -3v-70q0 -17 9.5 -27t25.5 -10t26 10.5t10 26.5v40q0 33 34 33q8 0 20 -3v-70q0 -17 9 -27t25 -10q17 0 26.5 10t9.5 27v39q0 33 34 33z" />
    <glyph glyph-name="uni06510650" 
d="M12.5 13q-25.5 26 -25.5 66v40q0 33 34 33q9 0 21 -3v-70q0 -17 9.5 -27t25.5 -10t26 10.5t10 26.5v40q0 33 34 33q8 0 20 -3v-70q0 -17 9 -27t25 -10q17 0 26.5 10t9.5 27v39q0 33 34 33q8 0 20 -3v-69q0 -39 -26 -65.5t-64 -26.5q-36 0 -62 26q-24 -26 -62 -26
q-39 0 -64.5 26zM293 -57q0 -15 -7.5 -22.5t-23.5 -10.5l-273 -48q-3 15 -3 26q0 16 7.5 24t23.5 10l272 46q4 -20 4 -25z" />
    <glyph glyph-name="uni0651064D" 
d="M12.5 13q-25.5 26 -25.5 66v40q0 33 34 33q9 0 21 -3v-70q0 -17 9.5 -27t25.5 -10t26 10.5t10 26.5v40q0 33 34 33q8 0 20 -3v-70q0 -17 9 -27t25 -10q17 0 26.5 10t9.5 27v39q0 33 34 33q8 0 20 -3v-69q0 -39 -26 -65.5t-64 -26.5q-36 0 -62 26q-24 -26 -62 -26
q-39 0 -64.5 26zM-11 -138q-3 15 -3 26q0 16 7.5 24t23.5 10l272 46q4 -20 4 -25q0 -15 -7.5 -22.5t-23.5 -10.5zM289 -132q4 -20 4 -25q0 -15 -7.5 -22.5t-23.5 -10.5l-273 -48q-3 15 -3 26q0 16 7.5 24t23.5 10z" />
    <glyph glyph-name="NUL" 
 />
    <glyph glyph-name="sheen_dits" horiz-adv-x="353" 
d="M81 14q-14 14 -14 33t14 32.5t33 13.5t32.5 -13.5t13.5 -32.5t-13.5 -33t-32.5 -14t-33 14zM341 14q-14 14 -14 33t14 32.5t33 13.5t32.5 -13.5t13.5 -32.5t-13.5 -33t-32.5 -14t-33 14zM211 145q-14 14 -14 33t14 32.5t33 13.5t32.5 -13.5t13.5 -32.5t-13.5 -33
t-32.5 -14t-33 14z" />
    <glyph glyph-name="selah" horiz-adv-x="198" 
d="M77 115q40 -41 121 -41v-74q-109 0 -163.5 60t-54.5 179h57q0 -83 40 -124z" />
    <glyph glyph-name="serif_1" horiz-adv-x="600" 
 />
    </font>
</defs>
</svg>
